<svg id="Layer_1" data-name="Layer 1" xmlns="http://www.w3.org/2000/svg" xmlns:xlink="http://www.w3.org/1999/xlink" viewBox="0 0 1080 1080"><defs><style>.cls-1{fill:#f9a724;}.cls-2{fill:#930b67;}.cls-3{fill:#940b69;}.cls-4{fill:#faa723;}.cls-5{font-size:72px;font-family:MicrosoftNewTaiLue-Bold, Microsoft New Tai Lue;font-weight:700;}.cls-6{fill:url(#linear-gradient);}</style><linearGradient id="linear-gradient" x1="486.95" y1="525.13" x2="915.89" y2="525.13" gradientUnits="userSpaceOnUse"><stop offset="0" stop-color="#940b69"/><stop offset="0.59" stop-color="#c75b46"/><stop offset="1" stop-color="#f8a725"/></linearGradient></defs><path class="cls-1" d="M317.46,560.2a42,42,0,0,1-2.41-9.82,68.56,68.56,0,0,1-.89-14.66,71,71,0,0,1,6-25.7,66.88,66.88,0,0,1,7.13-12.12,70.54,70.54,0,0,1,24.25-20.5A66.62,66.62,0,0,1,376,470c3.37-.35,6.77-.72,10.07-.1,2.14.4,4.28.25,6.43.67a82.52,82.52,0,0,1,11.1,2.74,61.1,61.1,0,0,1,9.14,4.25,76.74,76.74,0,0,1,9.12,6,37.39,37.39,0,0,1,5,4.69,57.4,57.4,0,0,1,8,10.75,55.35,55.35,0,0,1,6.32,14.82,20.47,20.47,0,0,1,.95,5.86,10.88,10.88,0,0,1-5.66,9.16,13.71,13.71,0,0,1-9.31,1.77,11.77,11.77,0,0,1-9.61-9,33.24,33.24,0,0,0-13.83-20.76,35.19,35.19,0,0,0-24.15-6.65A40.13,40.13,0,0,0,363.81,499a44.89,44.89,0,0,0-16,14.67,43.36,43.36,0,0,0-6.62,16.92,47.07,47.07,0,0,0,.16,17.23,45.8,45.8,0,0,0,5,14.15,2.22,2.22,0,0,1,.4,1.41c-3.24-1.29-6.51-.86-9.63.25-3.49,1.24-6.33,7-2.6,10.41,1.84,1.7,5.77,2.05,7.63.44a1.73,1.73,0,0,0,.59-1.69c-.12-.7-.69-.91-1.28-1-.74-.08-1.5,0-2.24-.11-1.14-.11-1.58-.77-1.35-1.89a3.91,3.91,0,0,1,2.65-3.15,7.28,7.28,0,0,1,3.56-.27c2.45.31,4.85,1,5.79,3.71,1.28,3.65.57,8.22-4.18,9.37a17.14,17.14,0,0,1-12.85-2.14c-4.35-2.47-7.63-6.09-10.67-10-1.89-2.39-2.9-5.27-4.4-7.88C317.39,559.68,317.57,560,317.46,560.2Zm25.65,1.1a2,2,0,0,0-1.29-.91,16.62,16.62,0,0,0-7.63-.69,3.93,3.93,0,0,0-3,1.86,1.76,1.76,0,0,0,0,2c.51.66,1-.11,1.52-.27a3.39,3.39,0,0,0,.84-.53,10.54,10.54,0,0,1,7.75-1.5A5.84,5.84,0,0,0,343.11,561.3Zm-14.77,9.33a3.22,3.22,0,0,0,.64-.19,7.83,7.83,0,0,0,2-4c0-.29-.13-.44-.45-.44-1.07,0-3.35,2-3.43,3.1C327,569.89,327.27,570.56,328.34,570.63Z"/><path class="cls-2" d="M317.46,560.2c.11-.22-.07-.52.27-.71,1.5,2.61,2.51,5.49,4.4,7.88,3,3.86,6.32,7.48,10.67,10a17.14,17.14,0,0,0,12.85,2.14c4.75-1.15,5.46-5.72,4.18-9.37-.94-2.7-3.34-3.4-5.79-3.71a7.28,7.28,0,0,0-3.56.27,3.91,3.91,0,0,0-2.65,3.15c-.23,1.12.21,1.78,1.35,1.89.74.06,1.5,0,2.24.11.59.07,1.16.28,1.28,1a1.73,1.73,0,0,1-.59,1.69c-1.86,1.61-5.79,1.26-7.63-.44-3.73-3.45-.89-9.17,2.6-10.41,3.12-1.11,6.39-1.54,9.63-.25a3.71,3.71,0,0,1,1,1.41,50.42,50.42,0,0,0,21.76,20.39,39.48,39.48,0,0,0,25.85,3.56,34.91,34.91,0,0,0,19.52-11.52,37.06,37.06,0,0,0,2.17-3c4.93-6.87,15.48-6.79,20.1.22a11.06,11.06,0,0,1,.92,10.39c-1.14,3.14-3.28,5.66-5.37,8.18a45.28,45.28,0,0,1-8,7.67,60.12,60.12,0,0,1-15.3,8.49c-11,4-22.21,6.11-33.82,3.88a79.86,79.86,0,0,1-21.84-7.17A74.55,74.55,0,0,1,332.26,589a70,70,0,0,1-7.68-10.85c-3.14-5.22-4.94-11-7-16.63A6,6,0,0,1,317.46,560.2Z"/><path class="cls-1" d="M324.41,492a1.13,1.13,0,0,1,1.07,1.84c-.72,1.26-1.52,2.48-2.35,3.67a67.73,67.73,0,0,0-10.19,23.24c-.41,1.7-.72,3.4-1,5.12a6.88,6.88,0,0,1-.44,1.42,1.28,1.28,0,0,1-1.43.95,1.37,1.37,0,0,1-1.17-1.42,14.69,14.69,0,0,1,.57-4.06,69.89,69.89,0,0,1,3-10.91,81.59,81.59,0,0,1,8.13-15.79,32.3,32.3,0,0,1,2.36-3.21A2.12,2.12,0,0,1,324.41,492Z"/><path class="cls-1" d="M391.38,464.82A56.56,56.56,0,0,1,403,467.36a54.71,54.71,0,0,1,14.35,6.84c.24.16.49.31.72.48.68.49,1.5.95.85,2a1.73,1.73,0,0,1-2.45.28,54.35,54.35,0,0,0-14-6.9,44.89,44.89,0,0,0-10.93-2.35,6.45,6.45,0,0,1-1.47-.24c-.59-.21-1.22-.5-1.14-1.29a1.54,1.54,0,0,1,1.44-1.33A6.68,6.68,0,0,1,391.38,464.82Z"/><path class="cls-2" d="M445.11,582.81a6.05,6.05,0,0,1-.41.93c-2.32,3.72-4.44,7.57-7,11.14a46.43,46.43,0,0,1-3.26,3.74,2.11,2.11,0,0,1-1.21.62,1.4,1.4,0,0,1-1.39-.64c-.32-.47,0-.89.29-1.23a51.33,51.33,0,0,0,9.64-14.22,2.12,2.12,0,0,1,2.89-1.17C445,582.09,445.17,582.22,445.11,582.81Z"/><path class="cls-2" d="M410.25,613.59a1.86,1.86,0,0,1,1.35-1.85,68.54,68.54,0,0,0,8.15-4,45,45,0,0,0,5.16-3.5,6.63,6.63,0,0,1,1-.71,1.23,1.23,0,0,1,1.68.29c.47.62.06,1.08-.36,1.52a30.54,30.54,0,0,1-8.59,5.89c-2.16,1.07-4.27,2.23-6.38,3.39-.51.28-1,.84-1.56.5S410.45,614,410.25,613.59Z"/><path class="cls-1" d="M316.05,570.46a1.27,1.27,0,0,1,1.31.95,56.32,56.32,0,0,0,5.29,10c.36.56.64,1.21,0,1.81s-1.34.36-2-.06a5.53,5.53,0,0,1-1.7-2.26,82.91,82.91,0,0,1-4.26-8.28A1.45,1.45,0,0,1,316.05,570.46Z"/><path class="cls-1" d="M307.7,541.77c0-.91,0-1.82,0-2.74a1.66,1.66,0,0,1,1.75-1.73c1.08-.06,1.24.82,1.27,1.64.09,2.06.14,4.14.18,6.21,0,.84-.34,1.53-1.26,1.55a1.54,1.54,0,0,1-1.71-1.32c-.14-1.2-.14-2.4-.2-3.61Z"/><path class="cls-1" d="M444.08,510.19a1.61,1.61,0,0,1-1.82-1.2c-.63-1.61-1.37-3.19-2.05-4.79a1.28,1.28,0,0,1,.48-1.83,1.17,1.17,0,0,1,1.71.45,19.82,19.82,0,0,1,2.91,5.88C445.67,509.94,445.43,510.19,444.08,510.19Z"/><path class="cls-1" d="M425.89,481.05a1.26,1.26,0,0,1-1.79,1.14,7.94,7.94,0,0,1-2.72-2.09,1,1,0,0,1-.09-1.46c.43-.47,1-1,1.61-.63a8.24,8.24,0,0,1,2.88,2.63A1.2,1.2,0,0,1,425.89,481.05Z"/><path class="cls-2" d="M343.11,561.3a5.84,5.84,0,0,1-1.83,0,10.54,10.54,0,0,0-7.75,1.5,3.39,3.39,0,0,1-.84.53c-.5.16-1,.93-1.52.27a1.76,1.76,0,0,1,0-2,3.93,3.93,0,0,1,3-1.86,16.62,16.62,0,0,1,7.63.69A2,2,0,0,1,343.11,561.3Z"/><path class="cls-2" d="M328.34,570.63c-1.07-.07-1.3-.74-1.24-1.55.08-1.07,2.36-3.08,3.43-3.1.32,0,.42.15.45.44a7.83,7.83,0,0,1-2,4A3.22,3.22,0,0,1,328.34,570.63Z"/><path class="cls-2" d="M244.7,647.5c13.36-.26,23-3.58,31.61-9.39A51.58,51.58,0,0,0,294.52,617a56.58,56.58,0,0,0,5.06-17.29,63.29,63.29,0,0,0,0-10.84c-.3-5.53-2.07-10.62-4.26-15.56a50.75,50.75,0,0,0-7.83-12.17A72.76,72.76,0,0,0,273.34,549c-1.07-.75-1.86-.43-2,.87-.29,2-.4,4-.58,6.08-.55,5.88-1.07,11.77-1.65,17.65a6.17,6.17,0,0,0,1,4.59,26.72,26.72,0,0,1,4.54,9.4,28.34,28.34,0,0,1-4.22,23.35,26.56,26.56,0,0,1-11.26,9.8,31.55,31.55,0,0,1-25.84.54,28.57,28.57,0,0,1-15-13.78c-1.08-2.14-1.5-4.48-2.36-6.69-2.67-6.87-11.09-8.08-16.36-5.08a12.53,12.53,0,0,0-6,13.66c.77,4,2.75,7.6,4.8,11a54.18,54.18,0,0,0,16.42,17.53,55.29,55.29,0,0,0,17.58,7.83A57.72,57.72,0,0,0,244.7,647.5Zm23.76-122.56c.08-2.7-.7-4.57-2.78-5.72s-3.67-.32-5.36.77c-3.88,2.5-7.77,5-11.69,7.42-7,4.35-14,8.65-21,13-2.8,1.72-5.6,3.44-8.36,5.22a4.76,4.76,0,0,0-2,6c.77,2.06,2.5,2.81,4.39,3.33a87.18,87.18,0,0,1,8.71,3,65.15,65.15,0,0,1,18,10.73c3.19,2.61,6,5.61,9.16,8.29a3.43,3.43,0,0,0,3.73.61,3.64,3.64,0,0,0,2.66-3.16c.14-2.5.54-5,.76-7.46q.93-10.12,1.85-20.27C267.19,539.31,267.84,531.93,268.46,524.94ZM232,590.83a10.73,10.73,0,0,0,10.81-10.74,10.42,10.42,0,0,0-10.38-10.27c-5.4-.09-10.46,3.75-10.6,10.82A10.29,10.29,0,0,0,232,590.83ZM186.64,489.42a1.45,1.45,0,0,0,1.58,1.63c1.23,0,1.66-.41,1.72-1.74,0-.29,0-.58,0-.88-.07-7.78,2.15-15,5.39-22A62.3,62.3,0,0,1,201.48,456c.39-.55.75-1.21.06-1.78a1.49,1.49,0,0,0-2,.05,3.18,3.18,0,0,0-.66.75c-1.07,1.67-2.13,3.36-3.19,5.05a60.28,60.28,0,0,0-6.88,16.26A69.06,69.06,0,0,0,186.64,489.42Zm115,91.29a9.46,9.46,0,0,0-.24-1.41,52.4,52.4,0,0,0-7.39-15.72,78.67,78.67,0,0,0-10.63-11.7c-1.52-1.42-3.14-2.73-4.74-4-.74-.62-1.62-1.09-2.42-.17s.12,1.48.68,2a31.4,31.4,0,0,0,2.95,2.08,59.22,59.22,0,0,1,14.77,16.91,58.6,58.6,0,0,1,5.06,12.45c.15.52.21,1.31,1,1.19S301.6,581.45,301.68,580.71ZM224,647.38c.91-.1,1.78-.31,2-1.18s-.71-1-1.3-1.25a4.14,4.14,0,0,0-.59-.21,30,30,0,0,1-6.82-3,56.8,56.8,0,0,1-14.54-12.2,51.92,51.92,0,0,1-5.12-7.35c-.38-.65-.88-1.12-1.61-.66a1.27,1.27,0,0,0-.5,2c.43.62.82,1.25,1.22,1.88a54.67,54.67,0,0,0,11,12.5,58.22,58.22,0,0,0,11.17,7.47A21.89,21.89,0,0,0,224,647.38ZM254.39,432.5c-.89.09-1.7.18-1.8,1.14s.57,1.32,1.47,1.45a59.4,59.4,0,0,1,8.42,1.66,57.46,57.46,0,0,1,16.77,7.77c.89.61,1.66,1.38,2.56,2s2.22.62,2.58-.11c.53-1.07-.37-1.61-1-2.11-5.65-4.16-11.63-7.69-18.46-9.62A88.19,88.19,0,0,0,254.39,432.5Zm-60,87.13a3.88,3.88,0,0,0,.37.79c1.74,2.37,3.21,4.93,5.09,7.19.5.61,1,1.23,1.55,1.78a1.39,1.39,0,0,0,2,0c.68-.57,0-.92-.31-1.33-1.83-2.91-4.24-5.42-5.82-8.5a2.65,2.65,0,0,0-1.09-1.16A1.26,1.26,0,0,0,194.34,519.63Zm-7.38-21a6.81,6.81,0,0,0,.35,2.58,1.46,1.46,0,0,0,1.78,1.18c.91-.15,1-.88,1-1.63-.09-1.41-.21-2.82-.34-4.23-.05-.53.13-1.3-.77-1.29a1.56,1.56,0,0,0-1.7,1.17A8,8,0,0,0,187,498.66Zm114.25,93.06h.19c0,1,0,2.07,0,3.1,0,.55.2,1,.81,1.07a1.1,1.1,0,0,0,1.29-.92,29.54,29.54,0,0,0-.19-6.44,1.07,1.07,0,0,0-1.22-1c-.72.1-.86.72-.87,1.32C301.19,589.81,301.21,590.76,301.21,591.72Zm-.06-123.32a13.38,13.38,0,0,0-2.78-5.43,1.09,1.09,0,0,0-1.27-.26c-.53.19-.87.56-.62,1.15.75,1.79,1.51,3.58,2.35,5.33a1.15,1.15,0,0,0,1.47.62A1.29,1.29,0,0,0,301.15,468.4Z"/><path class="cls-3" d="M244.7,647.5a57.72,57.72,0,0,1-12.41-1.74,55.29,55.29,0,0,1-17.58-7.83,54.18,54.18,0,0,1-16.42-17.53c-2-3.45-4-7-4.8-11a12.53,12.53,0,0,1,6-13.66c5.27-3,13.69-1.79,16.36,5.08.86,2.21,1.28,4.55,2.36,6.69a28.57,28.57,0,0,0,15,13.78,31.55,31.55,0,0,0,25.84-.54,26.56,26.56,0,0,0,11.26-9.8,28.34,28.34,0,0,0,4.22-23.35,26.72,26.72,0,0,0-4.54-9.4,6.17,6.17,0,0,1-1-4.59c.58-5.88,1.1-11.77,1.65-17.65.18-2,.29-4.07.58-6.08.18-1.3,1-1.62,2-.87a72.76,72.76,0,0,1,14.12,12.21,50.75,50.75,0,0,1,7.83,12.17c2.19,4.94,4,10,4.26,15.56a63.29,63.29,0,0,1,0,10.84A56.58,56.58,0,0,1,294.52,617a51.58,51.58,0,0,1-18.21,21.08C267.73,643.92,258.06,647.24,244.7,647.5Z"/><path class="cls-4" d="M193.37,501a28.55,28.55,0,0,1-1.41-8.7,53,53,0,0,1,4.09-22.17A51.7,51.7,0,0,1,207.23,453a54.56,54.56,0,0,1,24.52-14.45,53.71,53.71,0,0,1,25.2-1,57.54,57.54,0,0,1,16.11,5.71,52.39,52.39,0,0,1,19.25,17.44,46.77,46.77,0,0,1,6.95,14.67c1.41,5.81,0,11.35-5.86,14.35a12.74,12.74,0,0,1-15.57-3.45,11.34,11.34,0,0,1-2.17-4.45c-1.89-7.4-6.45-12.77-12.81-16.69a29.92,29.92,0,0,0-24.74-3.37,28.46,28.46,0,0,0-18.34,15.46c-3.63,7.44-3.92,15.21-1.73,23.1,1.28,4.6,3.94,8.46,6.9,12.13.15.19.28.4.42.6a1.15,1.15,0,0,1-1.08,0,12.21,12.21,0,0,0-3.77-.75c-3.25-.29-6.77,1.56-8,4.26a3.4,3.4,0,0,0-.33,2.76c1,2.54,5,3.38,6.94,1.43a1,1,0,0,0-.74-1.79c-.28,0-.57.09-.86.14a1.72,1.72,0,0,1-1.72-.76,1.4,1.4,0,0,1,0-1.63c1-2.15,2.87-2.64,5-2.44,4.4.4,5.81,2.46,5.16,6.68a3.36,3.36,0,0,1-2.57,2.77,19.66,19.66,0,0,1-11.07-.2C206,521.75,202,517.08,198.29,512c-1.81-2.48-2.53-5.48-3.6-8.32A5.93,5.93,0,0,0,193.37,501ZM215.5,510c-2.27,0-4,.46-5,2.46a.81.81,0,0,0,.1,1,.67.67,0,0,0,1,0,9.71,9.71,0,0,1,6.82-2.2c.25,0,.54,0,.56-.35s-.28-.37-.51-.44A9.42,9.42,0,0,0,215.5,510Zm-5,5.88c.07-.39-.15-.59-.78-.27-1,.51-2.05.93-2.18,2.29,0,.44-.34.92.17,1.22a1.16,1.16,0,0,0,1.49-.2A4.9,4.9,0,0,0,210.47,515.92Z"/><path class="cls-3" d="M268.46,524.94c-.62,7-1.27,14.37-1.93,21.74q-.91,10.14-1.85,20.27c-.22,2.49-.62,5-.76,7.46a3.64,3.64,0,0,1-2.66,3.16,3.43,3.43,0,0,1-3.73-.61c-3.13-2.68-6-5.68-9.16-8.29a65.15,65.15,0,0,0-18-10.73,87.18,87.18,0,0,0-8.71-3c-1.89-.52-3.62-1.27-4.39-3.33a4.76,4.76,0,0,1,2-6c2.76-1.78,5.56-3.5,8.36-5.22,7-4.33,14-8.63,21-13,3.92-2.43,7.81-4.92,11.69-7.42,1.69-1.09,3.4-1.84,5.36-.77S268.54,522.24,268.46,524.94Z"/><path class="cls-3" d="M193.37,501a5.93,5.93,0,0,1,1.32,2.71c1.07,2.84,1.79,5.84,3.6,8.32,3.69,5.06,7.75,9.73,14.05,11.59a19.66,19.66,0,0,0,11.07.2A3.36,3.36,0,0,0,226,521c.65-4.22-.76-6.28-5.16-6.68-2.13-.2-4,.29-5,2.44a1.4,1.4,0,0,0,0,1.63,1.72,1.72,0,0,0,1.72.76c.29-.05.58-.12.86-.14a1,1,0,0,1,.74,1.79c-1.91,1.95-5.94,1.11-6.94-1.43a3.4,3.4,0,0,1,.33-2.76c1.21-2.7,4.73-4.55,8-4.26a12.21,12.21,0,0,1,3.77.75,1.15,1.15,0,0,0,1.08,0,77.36,77.36,0,0,0,14.41,10.65c.69.38,1.56.9,1.44,1.88s-1,1.24-1.7,1.67c-3.51,2.06-7,4.17-10.48,6.26L221.66,538c-.8.49-1.48.15-2.2-.29A61.06,61.06,0,0,1,204.54,525a54.57,54.57,0,0,1-7.73-12.6A40.14,40.14,0,0,1,193.37,501Z"/><path class="cls-3" d="M232,590.83a10.29,10.29,0,0,1-10.17-10.19c.14-7.07,5.2-10.91,10.6-10.82a10.42,10.42,0,0,1,10.38,10.27A10.73,10.73,0,0,1,232,590.83Z"/><path class="cls-4" d="M186.64,489.42a69.06,69.06,0,0,1,2.21-13.06,60.28,60.28,0,0,1,6.88-16.26c1.06-1.69,2.12-3.38,3.19-5.05a3.18,3.18,0,0,1,.66-.75,1.49,1.49,0,0,1,2-.05c.69.57.33,1.23-.06,1.78a62.3,62.3,0,0,0-6.13,10.42c-3.24,7-5.46,14.2-5.39,22,0,.3,0,.59,0,.88-.06,1.33-.49,1.76-1.72,1.74A1.45,1.45,0,0,1,186.64,489.42Z"/><path class="cls-3" d="M301.68,580.71c-.08.74-.13,1.51-.95,1.62s-.86-.67-1-1.19a58.6,58.6,0,0,0-5.06-12.45,59.22,59.22,0,0,0-14.77-16.91,31.4,31.4,0,0,1-2.95-2.08c-.56-.56-1.5-1.09-.68-2s1.68-.45,2.42.17c1.6,1.32,3.22,2.63,4.74,4a78.67,78.67,0,0,1,10.63,11.7,52.4,52.4,0,0,1,7.39,15.72A9.46,9.46,0,0,1,301.68,580.71Z"/><path class="cls-3" d="M224,647.38a21.89,21.89,0,0,1-5.14-2,58.22,58.22,0,0,1-11.17-7.47,54.67,54.67,0,0,1-11-12.5c-.4-.63-.79-1.26-1.22-1.88a1.27,1.27,0,0,1,.5-2c.73-.46,1.23,0,1.61.66a51.92,51.92,0,0,0,5.12,7.35,56.8,56.8,0,0,0,14.54,12.2,30,30,0,0,0,6.82,3,4.14,4.14,0,0,1,.59.21c.59.27,1.46.45,1.3,1.25S224.91,647.28,224,647.38Z"/><path class="cls-4" d="M254.39,432.5a88.19,88.19,0,0,1,10.5,2.16c6.83,1.93,12.81,5.46,18.46,9.62.67.5,1.57,1,1,2.11-.36.73-1.56.79-2.58.11s-1.67-1.37-2.56-2a57.46,57.46,0,0,0-16.77-7.77,59.4,59.4,0,0,0-8.42-1.66c-.9-.13-1.58-.43-1.47-1.45S253.5,432.59,254.39,432.5Z"/><path class="cls-4" d="M194.34,519.63a1.26,1.26,0,0,1,1.82-1.27,2.65,2.65,0,0,1,1.09,1.16c1.58,3.08,4,5.59,5.82,8.5.26.41,1,.76.31,1.33a1.39,1.39,0,0,1-2,0c-.55-.55-1-1.17-1.55-1.78-1.88-2.26-3.35-4.82-5.09-7.19A3.88,3.88,0,0,1,194.34,519.63Z"/><path class="cls-4" d="M187,498.66a8,8,0,0,1,.29-2.22,1.56,1.56,0,0,1,1.7-1.17c.9,0,.72.76.77,1.29.13,1.41.25,2.82.34,4.23.05.75-.06,1.48-1,1.63a1.46,1.46,0,0,1-1.78-1.18A6.81,6.81,0,0,1,187,498.66Z"/><path class="cls-3" d="M301.21,591.72c0-1,0-1.91,0-2.86,0-.6.15-1.22.87-1.32a1.07,1.07,0,0,1,1.22,1,29.54,29.54,0,0,1,.19,6.44,1.1,1.1,0,0,1-1.29.92c-.61,0-.81-.52-.81-1.07,0-1,0-2.07,0-3.1Z"/><path class="cls-4" d="M301.15,468.4a1.29,1.29,0,0,1-.85,1.41,1.15,1.15,0,0,1-1.47-.62c-.84-1.75-1.6-3.54-2.35-5.33-.25-.59.09-1,.62-1.15a1.09,1.09,0,0,1,1.27.26A13.38,13.38,0,0,1,301.15,468.4Z"/><path class="cls-3" d="M215.5,510a9.42,9.42,0,0,1,2.94.48c.23.07.53.12.51.44s-.31.36-.56.35a9.71,9.71,0,0,0-6.82,2.2.67.67,0,0,1-1,0,.81.81,0,0,1-.1-1C211.46,510.5,213.23,510,215.5,510Z"/><path class="cls-3" d="M210.47,515.92a4.9,4.9,0,0,1-1.3,3,1.16,1.16,0,0,1-1.49.2c-.51-.3-.22-.78-.17-1.22.13-1.36,1.19-1.78,2.18-2.29C210.32,515.33,210.54,515.53,210.47,515.92Z"/><text class="cls-5" transform="translate(470.27 550.32)">MARKETING</text><path class="cls-6" d="M533.48,550.32H522.26V520.15c0-3.26.15-6.85.43-10.79h-.28a53.49,53.49,0,0,1-1.59,6.68L509,550.32h-9.28l-12-33.93a65.52,65.52,0,0,1-1.59-7h-.31q.45,7.46.45,13.08v27.88H476V499.9h16.63L503,529.78a43,43,0,0,1,1.8,7.21H505a73.29,73.29,0,0,1,2-7.28l10.3-29.81h16.21Z"/><path class="cls-6" d="M589.27,550.32H576.9l-3.59-11.22H555.38l-3.55,11.22h-12.3l18.35-50.42h13.46Zm-18.56-19.94-5.41-16.94a22.43,22.43,0,0,1-.85-4.54h-.28a19.4,19.4,0,0,1-.88,4.4l-5.48,17.08Z"/><path class="cls-6" d="M637.86,550.32h-13l-7.84-13c-.59-1-1.15-1.86-1.69-2.63a14.39,14.39,0,0,0-1.64-2,6.64,6.64,0,0,0-1.72-1.27A4.42,4.42,0,0,0,610,531h-3.06v19.3H595.57V499.9h18q18.34,0,18.35,13.71a14.18,14.18,0,0,1-.81,4.87,13.5,13.5,0,0,1-2.29,4,14.47,14.47,0,0,1-3.57,3.09,18.12,18.12,0,0,1-4.65,2v.14a7.61,7.61,0,0,1,2.18,1.14,16.56,16.56,0,0,1,2,1.85A26.66,26.66,0,0,1,626.7,533c.59.81,1.14,1.6,1.63,2.37Zm-30.94-41.91v14h4.92a8.17,8.17,0,0,0,5.87-2.11A7,7,0,0,0,620,515q0-6.61-7.91-6.61Z"/><path class="cls-6" d="M684.48,550.32H670.13l-14.69-21.91a20.68,20.68,0,0,1-1.34-2.77h-.18v24.68H642.57V499.9h11.35v23.84h.18c.28-.66.75-1.6,1.41-2.81l13.92-21H683L665.39,524Z"/><path class="cls-6" d="M719.53,550.32H689.29V499.9h29.08v9.25H700.65v11.21h16.49v9.21H700.65V541.1h18.88Z"/><path class="cls-6" d="M763,509.15H748.64v41.17H737.25V509.15H722.94V499.9H763Z"/><path class="cls-6" d="M785.37,499.9v8.79h-4.21v32.84h4.21v8.79H765.58v-8.79h4.22V508.69h-4.22V499.9Z"/><path class="cls-6" d="M838,550.32H826.51l-20.78-31.68a46.62,46.62,0,0,1-2.53-4.18h-.14q.29,2.67.28,8.15v27.71H792.62V499.9h12.23l20,30.69c.92,1.39,1.76,2.76,2.54,4.12h.14a53.62,53.62,0,0,1-.28-6.93V499.9H838Z"/><path class="cls-6" d="M890.88,546.94q-7.38,4.26-18.35,4.25-12.16,0-19.18-6.73t-7-18.54q0-11.88,7.67-19.37t20.39-7.49a41.59,41.59,0,0,1,14.13,2.21v10.66a28.09,28.09,0,0,0-14.27-3.38,15.31,15.31,0,0,0-11.51,4.59q-4.46,4.59-4.45,12.25t4,12q4,4.26,10.77,4.26a15,15,0,0,0,6.47-1.16v-9.85H869.43v-9.07h21.45Z"/><path class="cls-2" d="M473.38,596.48a3.08,3.08,0,0,1-.5-.14V594l.34.06a3.89,3.89,0,0,0,.53,0h1a1.72,1.72,0,0,0,1.48-.55,2.6,2.6,0,0,0,.4-1.55V578.91h2.72v9h3.15v2.34h-3.15v1.86a5,5,0,0,1-1,3.23,3.46,3.46,0,0,1-2.84,1.24h-1A6,6,0,0,1,473.38,596.48Z"/><path class="cls-2" d="M482.11,590.22v-2.34h6.1v2.34Z"/><path class="cls-2" d="M488.1,593.16a1.53,1.53,0,0,1,1.15-.51,1.59,1.59,0,0,1,1.19.51,1.7,1.7,0,0,1,.49,1.23,1.66,1.66,0,0,1-.49,1.2,1.59,1.59,0,0,1-1.19.51,1.53,1.53,0,0,1-1.15-.51,1.66,1.66,0,0,1-.49-1.2A1.7,1.7,0,0,1,488.1,593.16Zm7.95-14.25v5.91a6.46,6.46,0,0,1-.42,2.46,4.81,4.81,0,0,1-1.1,1.67,4.34,4.34,0,0,1-1.56,1,5.43,5.43,0,0,1-1.84.31h-3.35v-2.34h2.49a5.41,5.41,0,0,0,1.54-.18,2,2,0,0,0,.94-.55,2.12,2.12,0,0,0,.48-1,7.46,7.46,0,0,0,.13-1.53v-5.7Zm-3.5,14.25a1.56,1.56,0,0,1,1.16-.51,1.58,1.58,0,0,1,1.18.51,1.7,1.7,0,0,1,.49,1.23,1.66,1.66,0,0,1-.49,1.2,1.58,1.58,0,0,1-1.18.51,1.56,1.56,0,0,1-1.16-.51,1.66,1.66,0,0,1-.49-1.2A1.7,1.7,0,0,1,492.55,593.16Z"/><path class="cls-2" d="M502.27,589.73a6.44,6.44,0,0,1-2-1.35,6.38,6.38,0,0,1-1.84-4.52,6.7,6.7,0,0,1,1.81-4.59,6.36,6.36,0,0,1,4.64-1.95,5.61,5.61,0,0,1,2.4.53,6.48,6.48,0,0,1,2,1.42,6.62,6.62,0,0,1,1.34,2.09,6.41,6.41,0,0,1,.5,2.5v6.51a5.74,5.74,0,0,1-.64,2.78,5.12,5.12,0,0,1-1.84,1.89,9.12,9.12,0,0,1-2.95,1.09,19.76,19.76,0,0,1-4,.36h-.52v-2.34h.66a18.53,18.53,0,0,0,3-.21,5.88,5.88,0,0,0,2-.67,2.84,2.84,0,0,0,1.14-1.22,4.06,4.06,0,0,0,.37-1.83h-3.76A5.89,5.89,0,0,1,502.27,589.73Zm-.93-4.43a4.82,4.82,0,0,0,.72,1.37,3.18,3.18,0,0,0,1.13.9,3.37,3.37,0,0,0,1.45.31h3.79v-4.32a3.77,3.77,0,0,0-.31-1.53,3.92,3.92,0,0,0-.81-1.24,3.53,3.53,0,0,0-1.2-.83,3.65,3.65,0,0,0-1.47-.3,3.52,3.52,0,0,0-1.45.3,3.35,3.35,0,0,0-1.13.83,4.08,4.08,0,0,0-.72,1.24,4.55,4.55,0,0,0-.26,1.53A5.58,5.58,0,0,0,501.34,585.3Z"/><path class="cls-2" d="M542.26,587.39a2,2,0,0,0,1.53.49h1.86v2.34h-.93a6.21,6.21,0,0,1-2.21-.37,3.65,3.65,0,0,1-1.72-1.43,4,4,0,0,1-1.72,1.38,5.65,5.65,0,0,1-2.16.42h-12a5.43,5.43,0,0,1-1.84-.31,4.34,4.34,0,0,1-1.56-1,4.68,4.68,0,0,1-1.1-1.67,6.46,6.46,0,0,1-.42-2.46v-5.91h2.69v5.7a7.46,7.46,0,0,0,.13,1.53,1.87,1.87,0,0,0,1.42,1.56,5.41,5.41,0,0,0,1.54.18H536a5.44,5.44,0,0,0,1.55-.18,2,2,0,0,0,.94-.55,2.12,2.12,0,0,0,.48-1,7.46,7.46,0,0,0,.13-1.53v-5.7h2.69v6.93A2.31,2.31,0,0,0,542.26,587.39Zm-14.83-15.23a1.55,1.55,0,0,1,1.15-.51,1.59,1.59,0,0,1,1.19.51,1.7,1.7,0,0,1,.49,1.23,1.66,1.66,0,0,1-.49,1.2,1.59,1.59,0,0,1-1.19.51,1.55,1.55,0,0,1-1.15-.51,1.66,1.66,0,0,1-.49-1.2A1.7,1.7,0,0,1,527.43,572.16Zm4.45,0a1.6,1.6,0,0,1,2.34,0,1.7,1.7,0,0,1,.49,1.23,1.66,1.66,0,0,1-.49,1.2,1.6,1.6,0,0,1-2.34,0,1.66,1.66,0,0,1-.49-1.2A1.7,1.7,0,0,1,531.88,572.16Z"/><path class="cls-2" d="M545.22,590.22v-2.34h6.1v2.34Z"/><path class="cls-2" d="M551,590.22v-2.34h6.1v2.34Z"/><path class="cls-2" d="M560,587.88a5.83,5.83,0,0,1-1-1.84,6.6,6.6,0,0,1-.36-2.18,6.77,6.77,0,0,1,.47-2.5,6.62,6.62,0,0,1,1.34-2.09,6.14,6.14,0,0,1,2-1.42,6.37,6.37,0,0,1,2.61-.53,5.68,5.68,0,0,1,2.4.53,6.48,6.48,0,0,1,2,1.42,7,7,0,0,1,1.34,2.09,6.41,6.41,0,0,1,.49,2.5v6.36H556.64v-2.34Zm1.5-2.58a4.36,4.36,0,0,0,.72,1.37,3.18,3.18,0,0,0,1.13.9,3.3,3.3,0,0,0,1.44.31h3.79v-4.32a4,4,0,0,0-1.11-2.77,3.74,3.74,0,0,0-1.2-.83,3.66,3.66,0,0,0-1.48-.3,3.44,3.44,0,0,0-1.44.3,3.35,3.35,0,0,0-1.13.83,3.71,3.71,0,0,0-.72,1.24,4.55,4.55,0,0,0-.26,1.53A5.58,5.58,0,0,0,561.5,585.3Zm2.57-13.14a1.6,1.6,0,0,1,2.34,0,1.71,1.71,0,0,1,.5,1.23,1.67,1.67,0,0,1-.5,1.2,1.6,1.6,0,0,1-2.34,0,1.7,1.7,0,0,1-.49-1.2A1.74,1.74,0,0,1,564.07,572.16Z"/><path class="cls-2" d="M577.55,589.73a6.44,6.44,0,0,1-2-1.35,6.14,6.14,0,0,1-1.34-2,6.33,6.33,0,0,1-.5-2.49,6.7,6.7,0,0,1,1.81-4.59,6.29,6.29,0,0,1,2-1.42,6.36,6.36,0,0,1,2.6-.53,5.61,5.61,0,0,1,2.4.53,6.48,6.48,0,0,1,2,1.42,6.83,6.83,0,0,1,1.35,2.09,6.59,6.59,0,0,1,.49,2.5v4h2.51v2.34H586.4v.15a5.63,5.63,0,0,1-.64,2.78,5,5,0,0,1-1.83,1.89,9.21,9.21,0,0,1-2.95,1.09,19.86,19.86,0,0,1-4,.36h-.52v-2.34h.67a18.71,18.71,0,0,0,3-.21,5.88,5.88,0,0,0,2-.67,2.84,2.84,0,0,0,1.14-1.22,4.2,4.2,0,0,0,.36-1.83H580A5.89,5.89,0,0,1,577.55,589.73Zm-.93-4.43a4.6,4.6,0,0,0,.73,1.37,3.09,3.09,0,0,0,1.13.9,3.3,3.3,0,0,0,1.44.31h3.79v-4.32a3.94,3.94,0,0,0-.3-1.53,4.29,4.29,0,0,0-.81-1.24,3.69,3.69,0,0,0-2.68-1.13,3.44,3.44,0,0,0-1.44.3,3.25,3.25,0,0,0-1.13.83,3.91,3.91,0,0,0-.73,1.24,4.55,4.55,0,0,0-.25,1.53A5.58,5.58,0,0,0,576.62,585.3Z"/><path class="cls-2" d="M588.48,590.22v-2.34h6.1v2.34Z"/><path class="cls-2" d="M613.58,589.8a5.41,5.41,0,0,1-2.11.42,6.21,6.21,0,0,1-2.21-.37,3.65,3.65,0,0,1-1.72-1.43,4,4,0,0,1-1.72,1.38,5.64,5.64,0,0,1-2.15.42,6.31,6.31,0,0,1-2.22-.37,3.69,3.69,0,0,1-1.72-1.43A3.9,3.9,0,0,1,598,589.8a5.6,5.6,0,0,1-2.15.42h-1.71v-2.34H595a5.49,5.49,0,0,0,1.55-.18,2.08,2.08,0,0,0,.94-.55,2,2,0,0,0,.47-1,7.46,7.46,0,0,0,.13-1.53v-5.7h2.69v6.93a2.31,2.31,0,0,0,.44,1.55,2,2,0,0,0,1.53.49h.06a5.41,5.41,0,0,0,1.54-.18,1.87,1.87,0,0,0,1.42-1.56,7.46,7.46,0,0,0,.13-1.53v-5.7h2.69v6.93a2.37,2.37,0,0,0,.43,1.55,2,2,0,0,0,1.54.49,5.41,5.41,0,0,0,1.54-.18,2,2,0,0,0,.94-.55,2.12,2.12,0,0,0,.48-1,7.46,7.46,0,0,0,.13-1.53v-5.7h2.69v6.93a2.31,2.31,0,0,0,.43,1.55,2,2,0,0,0,1.54.49h1.85v2.34h-.93a6.21,6.21,0,0,1-2.21-.37,3.65,3.65,0,0,1-1.72-1.43A3.92,3.92,0,0,1,613.58,589.8Z"/><path class="cls-2" d="M626.25,566.49v18.33a6.46,6.46,0,0,1-.42,2.46,4.66,4.66,0,0,1-1.09,1.67,4.47,4.47,0,0,1-1.57,1,5.37,5.37,0,0,1-1.83.31h-1.71v-2.34h.84a5.49,5.49,0,0,0,1.55-.18,2.08,2.08,0,0,0,.94-.55,2,2,0,0,0,.47-1,7.46,7.46,0,0,0,.13-1.53V566.49Z"/><path class="cls-2" d="M630,566.49h2.69v23.73H630Z"/><path class="cls-2" d="M639.12,589.73a6.25,6.25,0,0,1-3.32-3.38,6.32,6.32,0,0,1-.49-2.49,6.58,6.58,0,0,1,.48-2.5,6.43,6.43,0,0,1,1.33-2.09,6.14,6.14,0,0,1,2-1.42,6.37,6.37,0,0,1,2.61-.53,5.68,5.68,0,0,1,2.4.53,6.48,6.48,0,0,1,2,1.42,6.8,6.8,0,0,1,1.34,2.09,6.41,6.41,0,0,1,.49,2.5v6.51a5.74,5.74,0,0,1-.63,2.78A5.12,5.12,0,0,1,645.5,595a9.12,9.12,0,0,1-3,1.09,19.83,19.83,0,0,1-4,.36h-.53v-2.34h.67a18.62,18.62,0,0,0,3-.21,5.88,5.88,0,0,0,2-.67,2.84,2.84,0,0,0,1.14-1.22,4.2,4.2,0,0,0,.36-1.83h-3.76A6,6,0,0,1,639.12,589.73Zm-.92-4.43a4.36,4.36,0,0,0,.72,1.37,3.18,3.18,0,0,0,1.13.9,3.34,3.34,0,0,0,1.45.31h3.78v-4.32a4,4,0,0,0-1.11-2.77A3.74,3.74,0,0,0,643,580a3.65,3.65,0,0,0-1.47-.3,3.48,3.48,0,0,0-1.45.3,3.35,3.35,0,0,0-1.13.83,3.71,3.71,0,0,0-.72,1.24,4.55,4.55,0,0,0-.26,1.53A5.58,5.58,0,0,0,638.2,585.3Z"/><path class="cls-2" d="M665.56,590a6.05,6.05,0,0,1-2.31.45,6.26,6.26,0,0,1-4.65-2,6.73,6.73,0,0,1-1.33-2.08,6.83,6.83,0,0,1-.47-2.51,6.32,6.32,0,0,1,.49-2.49,6.25,6.25,0,0,1,1.34-2,6.44,6.44,0,0,1,2-1.35,6,6,0,0,1,2.4-.5h6.45v8.67a2.06,2.06,0,0,0,.29,1.34,1.05,1.05,0,0,0,.78.28h1.91v2.34H670.5a3.45,3.45,0,0,1-1.83-.45,4.33,4.33,0,0,1-1.17-1A6.12,6.12,0,0,1,665.56,590Zm-5.87-4.26a3.76,3.76,0,0,0,.72,1.25,3.32,3.32,0,0,0,1.13.82,3.44,3.44,0,0,0,1.44.3,3.73,3.73,0,0,0,2.68-1.12,4,4,0,0,0,1.11-2.78v-4.32H663a3.3,3.3,0,0,0-1.44.32,3.18,3.18,0,0,0-1.13.9,4.31,4.31,0,0,0-.72,1.38,5.3,5.3,0,0,0-.26,1.72A4.32,4.32,0,0,0,659.69,585.78Zm.89-13.62a1.57,1.57,0,0,1,1.16-.51,1.6,1.6,0,0,1,1.19.51,1.74,1.74,0,0,1,.49,1.23,1.7,1.7,0,0,1-.49,1.2,1.6,1.6,0,0,1-1.19.51,1.57,1.57,0,0,1-1.16-.51,1.7,1.7,0,0,1-.49-1.2A1.74,1.74,0,0,1,660.58,572.16Zm4.46,0a1.55,1.55,0,0,1,1.15-.51,1.59,1.59,0,0,1,1.19.51,1.7,1.7,0,0,1,.49,1.23,1.66,1.66,0,0,1-.49,1.2,1.59,1.59,0,0,1-1.19.51,1.55,1.55,0,0,1-1.15-.51,1.66,1.66,0,0,1-.49-1.2A1.7,1.7,0,0,1,665,572.16Z"/><path class="cls-2" d="M672,590.22v-2.34h6.1v2.34Z"/><path class="cls-2" d="M688.55,587.88v-4.32a3.88,3.88,0,0,0-.3-1.54,4.38,4.38,0,0,0-.81-1.23,3.69,3.69,0,0,0-2.68-1.13h-5.14v-2.07H685a6.05,6.05,0,0,1,2.4.48,6.25,6.25,0,0,1,2,1.34,6.37,6.37,0,0,1,1.35,2,6.11,6.11,0,0,1,.49,2.46v4H694v2.34H677.68v-2.34Zm-4.42,5.22a1.53,1.53,0,0,1,1.15-.51,1.59,1.59,0,0,1,1.19.51,1.7,1.7,0,0,1,.49,1.23,1.66,1.66,0,0,1-.49,1.2,1.59,1.59,0,0,1-1.19.51,1.53,1.53,0,0,1-1.15-.51,1.67,1.67,0,0,1-.5-1.2A1.71,1.71,0,0,1,684.13,593.1Z"/><path class="cls-2" d="M693.56,590.22v-2.34h6.1v2.34Z"/><path class="cls-2" d="M701.19,587.88v-4a6.41,6.41,0,0,1,.49-2.5,7,7,0,0,1,1.33-2.09,6.25,6.25,0,0,1,2-1.42,5.73,5.73,0,0,1,2.42-.53,6.36,6.36,0,0,1,2.6.53,6.29,6.29,0,0,1,2,1.42,6.7,6.7,0,0,1,1.81,4.59,6.33,6.33,0,0,1-.5,2.49,6.14,6.14,0,0,1-1.34,2,6.44,6.44,0,0,1-2,1.35,5.89,5.89,0,0,1-2.4.49h-8.42v-2.34ZM711,582a3.71,3.71,0,0,0-.72-1.24,3.25,3.25,0,0,0-1.13-.83,3.44,3.44,0,0,0-1.44-.3,3.69,3.69,0,0,0-2.68,1.13,4.29,4.29,0,0,0-.81,1.24,3.94,3.94,0,0,0-.3,1.53v4.32h3.79a3.3,3.3,0,0,0,1.44-.31,3.09,3.09,0,0,0,1.13-.9,4.36,4.36,0,0,0,.72-1.37,5.3,5.3,0,0,0,.26-1.74A4.32,4.32,0,0,0,711,582Z"/><path class="cls-2" d="M716.08,596.48a3.2,3.2,0,0,1-.49-.14V594l.34.06a3.89,3.89,0,0,0,.53,0h1a1.72,1.72,0,0,0,1.48-.55,2.6,2.6,0,0,0,.4-1.55V578.91h2.72v9h3.15v2.34H722.1v1.86a5,5,0,0,1-1,3.23,3.46,3.46,0,0,1-2.84,1.24h-1A6.16,6.16,0,0,1,716.08,596.48Z"/><path class="cls-2" d="M731.79,587.39a2,2,0,0,0,1.53.49h1.85v2.34h-.92a6.21,6.21,0,0,1-2.21-.37,3.72,3.72,0,0,1-1.73-1.43,3.9,3.9,0,0,1-1.72,1.38,5.6,5.6,0,0,1-2.15.42h-1.71v-2.34h.84a5.49,5.49,0,0,0,1.55-.18,2.08,2.08,0,0,0,.94-.55,2.12,2.12,0,0,0,.48-1,8.24,8.24,0,0,0,.13-1.53v-5.7h2.69v6.93A2.31,2.31,0,0,0,731.79,587.39Zm-2.95,5.71a1.56,1.56,0,0,1,1.16-.51,1.58,1.58,0,0,1,1.18.51,1.7,1.7,0,0,1,.49,1.23,1.66,1.66,0,0,1-.49,1.2A1.58,1.58,0,0,1,730,596a1.56,1.56,0,0,1-1.16-.51,1.66,1.66,0,0,1-.49-1.2A1.7,1.7,0,0,1,728.84,593.1Z"/><path class="cls-2" d="M741.28,566.49v18.33a6.46,6.46,0,0,1-.42,2.46,4.81,4.81,0,0,1-1.1,1.67,4.52,4.52,0,0,1-1.56,1,5.43,5.43,0,0,1-1.84.31h-1.71v-2.34h.84a5.49,5.49,0,0,0,1.55-.18,2.08,2.08,0,0,0,.94-.55,2.12,2.12,0,0,0,.48-1,8.24,8.24,0,0,0,.13-1.53V566.49Z"/><path class="cls-2" d="M745,566.49h2.68v23.73H745Z"/><path class="cls-2" d="M754.15,589.73a6.37,6.37,0,0,1-2-1.35,6.47,6.47,0,0,1-1.34-2,6.32,6.32,0,0,1-.49-2.49,6.58,6.58,0,0,1,.48-2.5,6.43,6.43,0,0,1,1.33-2.09,6.14,6.14,0,0,1,2-1.42,6.37,6.37,0,0,1,2.61-.53,5.68,5.68,0,0,1,2.4.53,6.48,6.48,0,0,1,2,1.42,6.8,6.8,0,0,1,1.34,2.09,6.41,6.41,0,0,1,.49,2.5v6.51a5.74,5.74,0,0,1-.63,2.78,5.12,5.12,0,0,1-1.84,1.89,9.12,9.12,0,0,1-2.95,1.09,19.76,19.76,0,0,1-4,.36h-.52v-2.34h.66a18.62,18.62,0,0,0,3-.21,5.88,5.88,0,0,0,2-.67,2.84,2.84,0,0,0,1.14-1.22,4.2,4.2,0,0,0,.36-1.83h-3.76A5.88,5.88,0,0,1,754.15,589.73Zm-.93-4.43a4.36,4.36,0,0,0,.72,1.37,3.18,3.18,0,0,0,1.13.9,3.34,3.34,0,0,0,1.45.31h3.78v-4.32a4,4,0,0,0-1.11-2.77A3.74,3.74,0,0,0,758,580a3.65,3.65,0,0,0-1.47-.3,3.48,3.48,0,0,0-1.45.3,3.35,3.35,0,0,0-1.13.83,3.71,3.71,0,0,0-.72,1.24,4.55,4.55,0,0,0-.26,1.53A5.58,5.58,0,0,0,753.22,585.3Z"/><path class="cls-2" d="M787.65,581.36a6.6,6.6,0,0,1,1.33-2.09,6.29,6.29,0,0,1,2-1.42,6.36,6.36,0,0,1,2.6-.53,5.61,5.61,0,0,1,2.4.53,6.48,6.48,0,0,1,2,1.42,6.83,6.83,0,0,1,1.35,2.09,6.59,6.59,0,0,1,.49,2.5v4h2.6v2.34h-2.6a6.65,6.65,0,0,1-.57,2.43,6.56,6.56,0,0,1-1.34,2A6.31,6.31,0,0,1,796,596a5.74,5.74,0,0,1-2.36.49h-8.36a5.71,5.71,0,0,1-2.41-.52,6.28,6.28,0,0,1-2-1.43,6.92,6.92,0,0,1-1.33-2.08,6.45,6.45,0,0,1-.49-2.51v-8h2.66v8.31a3.94,3.94,0,0,0,.3,1.53,3.85,3.85,0,0,0,.83,1.25,3.75,3.75,0,0,0,1.21.82,3.65,3.65,0,0,0,1.47.3h7.84a3.73,3.73,0,0,0,1.48-.3,3.87,3.87,0,0,0,1.21-.82,3.82,3.82,0,0,0,.82-1.25,3.77,3.77,0,0,0,.31-1.53v0h-3.79a5.89,5.89,0,0,1-2.4-.49,6.44,6.44,0,0,1-2-1.35,6.14,6.14,0,0,1-1.34-2,6.33,6.33,0,0,1-.5-2.49A6.58,6.58,0,0,1,787.65,581.36Zm2.41,3.94a4.6,4.6,0,0,0,.73,1.37,3.09,3.09,0,0,0,1.13.9,3.3,3.3,0,0,0,1.44.31h3.79v-4.32a3.94,3.94,0,0,0-.3-1.53,4.29,4.29,0,0,0-.81-1.24,3.69,3.69,0,0,0-2.68-1.13,3.44,3.44,0,0,0-1.44.3,3.25,3.25,0,0,0-1.13.83,3.91,3.91,0,0,0-.73,1.24,4.55,4.55,0,0,0-.26,1.53A5.58,5.58,0,0,0,790.06,585.3Zm.61-13.59a1.6,1.6,0,0,1,2.34,0,1.71,1.71,0,0,1,.5,1.23,1.67,1.67,0,0,1-.5,1.2,1.6,1.6,0,0,1-2.34,0,1.66,1.66,0,0,1-.49-1.2A1.7,1.7,0,0,1,790.67,571.71Zm4.45,0a1.57,1.57,0,0,1,1.16-.51,1.6,1.6,0,0,1,1.19.51,1.74,1.74,0,0,1,.49,1.23,1.7,1.7,0,0,1-.49,1.2,1.6,1.6,0,0,1-1.19.51,1.57,1.57,0,0,1-1.16-.51,1.7,1.7,0,0,1-.49-1.2A1.74,1.74,0,0,1,795.12,571.71Z"/><path class="cls-2" d="M802.24,593.16a1.57,1.57,0,0,1,1.16-.51,1.6,1.6,0,0,1,1.19.51,1.74,1.74,0,0,1,.49,1.23,1.7,1.7,0,0,1-.49,1.2,1.6,1.6,0,0,1-1.19.51,1.57,1.57,0,0,1-1.16-.51,1.7,1.7,0,0,1-.49-1.2A1.74,1.74,0,0,1,802.24,593.16Zm8-14.25v5.91a6.46,6.46,0,0,1-.42,2.46,4.81,4.81,0,0,1-1.1,1.67,4.52,4.52,0,0,1-1.56,1,5.43,5.43,0,0,1-1.84.31h-3.35v-2.34h2.48a5.49,5.49,0,0,0,1.55-.18,2.08,2.08,0,0,0,.94-.55,2.12,2.12,0,0,0,.48-1,8.24,8.24,0,0,0,.13-1.53v-5.7Zm-3.5,14.25a1.53,1.53,0,0,1,1.15-.51,1.59,1.59,0,0,1,1.19.51,1.7,1.7,0,0,1,.49,1.23,1.66,1.66,0,0,1-.49,1.2,1.59,1.59,0,0,1-1.19.51,1.53,1.53,0,0,1-1.15-.51,1.66,1.66,0,0,1-.49-1.2A1.7,1.7,0,0,1,806.7,593.16Z"/><path class="cls-2" d="M816.41,589.73a6.44,6.44,0,0,1-2-1.35,6.43,6.43,0,0,1-1.83-4.52,6.77,6.77,0,0,1,.47-2.5,6.6,6.6,0,0,1,1.33-2.09,6.29,6.29,0,0,1,2-1.42,6.36,6.36,0,0,1,2.6-.53,5.69,5.69,0,0,1,2.41.53,6.48,6.48,0,0,1,2,1.42,7,7,0,0,1,1.34,2.09,6.41,6.41,0,0,1,.49,2.5v4h2.52v2.34h-2.52v.15a5.74,5.74,0,0,1-.63,2.78,5.12,5.12,0,0,1-1.84,1.89,9.12,9.12,0,0,1-2.95,1.09,19.86,19.86,0,0,1-4,.36h-.52v-2.34H816a18.71,18.71,0,0,0,3-.21,5.88,5.88,0,0,0,2-.67,2.84,2.84,0,0,0,1.14-1.22,4.2,4.2,0,0,0,.36-1.83h-3.76A6,6,0,0,1,816.41,589.73Zm-.92-4.43a4.36,4.36,0,0,0,.72,1.37,3.18,3.18,0,0,0,1.13.9,3.31,3.31,0,0,0,1.45.31h3.78v-4.32a4,4,0,0,0-1.11-2.77,3.74,3.74,0,0,0-1.2-.83,3.65,3.65,0,0,0-1.47-.3,3.45,3.45,0,0,0-1.45.3,3.35,3.35,0,0,0-1.13.83,3.71,3.71,0,0,0-.72,1.24,4.55,4.55,0,0,0-.26,1.53A5.58,5.58,0,0,0,815.49,585.3Z"/><path class="cls-2" d="M827.35,590.22v-2.34h6.1v2.34Z"/><path class="cls-2" d="M833.1,590.22v-2.34h6.1v2.34Z"/><path class="cls-2" d="M858.2,589.8a5.44,5.44,0,0,1-2.11.42,6.21,6.21,0,0,1-2.21-.37,3.65,3.65,0,0,1-1.72-1.43,4,4,0,0,1-1.72,1.38,5.65,5.65,0,0,1-2.16.42,6.25,6.25,0,0,1-2.21-.37,3.69,3.69,0,0,1-1.72-1.43,3.9,3.9,0,0,1-1.72,1.38,5.6,5.6,0,0,1-2.15.42h-1.71v-2.34h.84a5.49,5.49,0,0,0,1.55-.18,2.08,2.08,0,0,0,.94-.55,2,2,0,0,0,.47-1,7.46,7.46,0,0,0,.13-1.53v-5.7h2.69v6.93a2.31,2.31,0,0,0,.44,1.55,2,2,0,0,0,1.53.49h.06a5.41,5.41,0,0,0,1.54-.18,2,2,0,0,0,.94-.55,2.12,2.12,0,0,0,.48-1,7.46,7.46,0,0,0,.13-1.53v-5.7h2.69v6.93a2.31,2.31,0,0,0,.43,1.55,2,2,0,0,0,1.54.49,5.41,5.41,0,0,0,1.54-.18,2,2,0,0,0,.94-.55,2.12,2.12,0,0,0,.48-1,7.46,7.46,0,0,0,.13-1.53v-5.7H861v6.93a2.31,2.31,0,0,0,.43,1.55,2,2,0,0,0,1.54.49h1.85v2.34h-.93a6.21,6.21,0,0,1-2.21-.37,3.65,3.65,0,0,1-1.72-1.43A3.92,3.92,0,0,1,858.2,589.8Z"/><path class="cls-2" d="M871.31,587.39a2,2,0,0,0,1.53.49h1.85v2.34h-.93a6.29,6.29,0,0,1-2.21-.37,3.69,3.69,0,0,1-1.72-1.43,3.9,3.9,0,0,1-1.72,1.38,5.6,5.6,0,0,1-2.15.42h-1.71v-2.34h.84a5.49,5.49,0,0,0,1.55-.18,2.08,2.08,0,0,0,.94-.55,2,2,0,0,0,.47-1,7.46,7.46,0,0,0,.13-1.53v-5.7h2.69v6.93A2.31,2.31,0,0,0,871.31,587.39Zm-5.12-15.23a1.56,1.56,0,0,1,1.16-.51,1.58,1.58,0,0,1,1.18.51,1.7,1.7,0,0,1,.49,1.23,1.66,1.66,0,0,1-.49,1.2,1.58,1.58,0,0,1-1.18.51,1.56,1.56,0,0,1-1.16-.51,1.66,1.66,0,0,1-.49-1.2A1.7,1.7,0,0,1,866.19,572.16Zm4.45,0a1.6,1.6,0,0,1,2.34,0,1.71,1.71,0,0,1,.5,1.23,1.67,1.67,0,0,1-.5,1.2,1.6,1.6,0,0,1-2.34,0,1.66,1.66,0,0,1-.49-1.2A1.7,1.7,0,0,1,870.64,572.16Z"/><path class="cls-2" d="M881.23,587.39a2,2,0,0,0,1.53.49h1.85v2.34h-.93a6.29,6.29,0,0,1-2.21-.37,3.69,3.69,0,0,1-1.72-1.43A3.9,3.9,0,0,1,878,589.8a5.6,5.6,0,0,1-2.15.42h-1.71v-2.34H875a5.49,5.49,0,0,0,1.55-.18,2.08,2.08,0,0,0,.94-.55,2,2,0,0,0,.47-1,7.46,7.46,0,0,0,.13-1.53V566.49h2.69v19.35A2.31,2.31,0,0,0,881.23,587.39Z"/><path class="cls-2" d="M890.71,566.49v18.33a6.46,6.46,0,0,1-.42,2.46A4.79,4.79,0,0,1,889.2,589a4.47,4.47,0,0,1-1.57,1,5.37,5.37,0,0,1-1.83.31h-1.71v-2.34h.84a5.49,5.49,0,0,0,1.55-.18,2.08,2.08,0,0,0,.94-.55,2,2,0,0,0,.47-1,7.46,7.46,0,0,0,.13-1.53V566.49Z"/></svg>