<?xml version="1.0" encoding="UTF-8"?>
<svg xmlns="http://www.w3.org/2000/svg"
     xmlns:xlink="http://www.w3.org/1999/xlink"
     viewBox="160 405 170 270"
     role="img"
     aria-labelledby="sm-title sm-description"
     focusable="false"
     preserveAspectRatio="xMidYMid meet">
  <title id="sm-title">Animated S logo with cursor</title>
  <desc id="sm-description">The purple surface drains like water to reveal the yellow part, then the cursor enters from the left, eases through the center, follows a smooth figure eight aligned with the S curves, and settles into its original position.</desc>

  <defs>
    <path id="sm-p13" d="M244.7,647.5c13.36-.26,23-3.58,31.61-9.39A51.58,51.58,0,0,0,294.52,617a56.58,56.58,0,0,0,5.06-17.29,63.29,63.29,0,0,0,0-10.84c-.3-5.53-2.07-10.62-4.26-15.56a50.75,50.75,0,0,0-7.83-12.17A72.76,72.76,0,0,0,273.34,549c-1.07-.75-1.86-.43-2,.87-.29,2-.4,4-.58,6.08-.55,5.88-1.07,11.77-1.65,17.65a6.17,6.17,0,0,0,1,4.59,26.72,26.72,0,0,1,4.54,9.4,28.34,28.34,0,0,1-4.22,23.35,26.56,26.56,0,0,1-11.26,9.8,31.55,31.55,0,0,1-25.84.54,28.57,28.57,0,0,1-15-13.78c-1.08-2.14-1.5-4.48-2.36-6.69-2.67-6.87-11.09-8.08-16.36-5.08a12.53,12.53,0,0,0-6,13.66c.77,4,2.75,7.6,4.8,11a54.18,54.18,0,0,0,16.42,17.53,55.29,55.29,0,0,0,17.58,7.83A57.72,57.72,0,0,0,244.7,647.5Zm23.76-122.56c.08-2.7-.7-4.57-2.78-5.72s-3.67-.32-5.36.77c-3.88,2.5-7.77,5-11.69,7.42-7,4.35-14,8.65-21,13-2.8,1.72-5.6,3.44-8.36,5.22a4.76,4.76,0,0,0-2,6c.77,2.06,2.5,2.81,4.39,3.33a87.18,87.18,0,0,1,8.71,3,65.15,65.15,0,0,1,18,10.73c3.19,2.61,6,5.61,9.16,8.29a3.43,3.43,0,0,0,3.73.61,3.64,3.64,0,0,0,2.66-3.16c.14-2.5.54-5,.76-7.46q.93-10.12,1.85-20.27C267.19,539.31,267.84,531.93,268.46,524.94ZM232,590.83a10.73,10.73,0,0,0,10.81-10.74,10.42,10.42,0,0,0-10.38-10.27c-5.4-.09-10.46,3.75-10.6,10.82A10.29,10.29,0,0,0,232,590.83ZM186.64,489.42a1.45,1.45,0,0,0,1.58,1.63c1.23,0,1.66-.41,1.72-1.74,0-.29,0-.58,0-.88-.07-7.78,2.15-15,5.39-22A62.3,62.3,0,0,1,201.48,456c.39-.55.75-1.21.06-1.78a1.49,1.49,0,0,0-2,.05,3.18,3.18,0,0,0-.66.75c-1.07,1.67-2.13,3.36-3.19,5.05a60.28,60.28,0,0,0-6.88,16.26A69.06,69.06,0,0,0,186.64,489.42Zm115,91.29a9.46,9.46,0,0,0-.24-1.41,52.4,52.4,0,0,0-7.39-15.72,78.67,78.67,0,0,0-10.63-11.7c-1.52-1.42-3.14-2.73-4.74-4-.74-.62-1.62-1.09-2.42-.17s.12,1.48.68,2a31.4,31.4,0,0,0,2.95,2.08,59.22,59.22,0,0,1,14.77,16.91,58.6,58.6,0,0,1,5.06,12.45c.15.52.21,1.31,1,1.19S301.6,581.45,301.68,580.71ZM224,647.38c.91-.1,1.78-.31,2-1.18s-.71-1-1.3-1.25a4.14,4.14,0,0,0-.59-.21,30,30,0,0,1-6.82-3,56.8,56.8,0,0,1-14.54-12.2,51.92,51.92,0,0,1-5.12-7.35c-.38-.65-.88-1.12-1.61-.66a1.27,1.27,0,0,0-.5,2c.43.62.82,1.25,1.22,1.88a54.67,54.67,0,0,0,11,12.5,58.22,58.22,0,0,0,11.17,7.47A21.89,21.89,0,0,0,224,647.38ZM254.39,432.5c-.89.09-1.7.18-1.8,1.14s.57,1.32,1.47,1.45a59.4,59.4,0,0,1,8.42,1.66,57.46,57.46,0,0,1,16.77,7.77c.89.61,1.66,1.38,2.56,2s2.22.62,2.58-.11c.53-1.07-.37-1.61-1-2.11-5.65-4.16-11.63-7.69-18.46-9.62A88.19,88.19,0,0,0,254.39,432.5Zm-60,87.13a3.88,3.88,0,0,0,.37.79c1.74,2.37,3.21,4.93,5.09,7.19.5.61,1,1.23,1.55,1.78a1.39,1.39,0,0,0,2,0c.68-.57,0-.92-.31-1.33-1.83-2.91-4.24-5.42-5.82-8.5a2.65,2.65,0,0,0-1.09-1.16A1.26,1.26,0,0,0,194.34,519.63Zm-7.38-21a6.81,6.81,0,0,0,.35,2.58,1.46,1.46,0,0,0,1.78,1.18c.91-.15,1-.88,1-1.63-.09-1.41-.21-2.82-.34-4.23-.05-.53.13-1.3-.77-1.29a1.56,1.56,0,0,0-1.7,1.17A8,8,0,0,0,187,498.66Zm114.25,93.06h.19c0,1,0,2.07,0,3.1,0,.55.2,1,.81,1.07a1.1,1.1,0,0,0,1.29-.92,29.54,29.54,0,0,0-.19-6.44,1.07,1.07,0,0,0-1.22-1c-.72.1-.86.72-.87,1.32C301.19,589.81,301.21,590.76,301.21,591.72Zm-.06-123.32a13.38,13.38,0,0,0-2.78-5.43,1.09,1.09,0,0,0-1.27-.26c-.53.19-.87.56-.62,1.15.75,1.79,1.51,3.58,2.35,5.33a1.15,1.15,0,0,0,1.47.62A1.29,1.29,0,0,0,301.15,468.4Z"/>
    <path id="sm-p14" d="M244.7,647.5a57.72,57.72,0,0,1-12.41-1.74,55.29,55.29,0,0,1-17.58-7.83,54.18,54.18,0,0,1-16.42-17.53c-2-3.45-4-7-4.8-11a12.53,12.53,0,0,1,6-13.66c5.27-3,13.69-1.79,16.36,5.08.86,2.21,1.28,4.55,2.36,6.69a28.57,28.57,0,0,0,15,13.78,31.55,31.55,0,0,0,25.84-.54,26.56,26.56,0,0,0,11.26-9.8,28.34,28.34,0,0,0,4.22-23.35,26.72,26.72,0,0,0-4.54-9.4,6.17,6.17,0,0,1-1-4.59c.58-5.88,1.1-11.77,1.65-17.65.18-2,.29-4.07.58-6.08.18-1.3,1-1.62,2-.87a72.76,72.76,0,0,1,14.12,12.21,50.75,50.75,0,0,1,7.83,12.17c2.19,4.94,4,10,4.26,15.56a63.29,63.29,0,0,1,0,10.84A56.58,56.58,0,0,1,294.52,617a51.58,51.58,0,0,1-18.21,21.08C267.73,643.92,258.06,647.24,244.7,647.5Z"/>
    <path id="sm-p15" d="M193.37,501a28.55,28.55,0,0,1-1.41-8.7,53,53,0,0,1,4.09-22.17A51.7,51.7,0,0,1,207.23,453a54.56,54.56,0,0,1,24.52-14.45,53.71,53.71,0,0,1,25.2-1,57.54,57.54,0,0,1,16.11,5.71,52.39,52.39,0,0,1,19.25,17.44,46.77,46.77,0,0,1,6.95,14.67c1.41,5.81,0,11.35-5.86,14.35a12.74,12.74,0,0,1-15.57-3.45,11.34,11.34,0,0,1-2.17-4.45c-1.89-7.4-6.45-12.77-12.81-16.69a29.92,29.92,0,0,0-24.74-3.37,28.46,28.46,0,0,0-18.34,15.46c-3.63,7.44-3.92,15.21-1.73,23.1,1.28,4.6,3.94,8.46,6.9,12.13.15.19.28.4.42.6a1.15,1.15,0,0,1-1.08,0,12.21,12.21,0,0,0-3.77-.75c-3.25-.29-6.77,1.56-8,4.26a3.4,3.4,0,0,0-.33,2.76c1,2.54,5,3.38,6.94,1.43a1,1,0,0,0-.74-1.79c-.28,0-.57.09-.86.14a1.72,1.72,0,0,1-1.72-.76,1.4,1.4,0,0,1,0-1.63c1-2.15,2.87-2.64,5-2.44,4.4.4,5.81,2.46,5.16,6.68a3.36,3.36,0,0,1-2.57,2.77,19.66,19.66,0,0,1-11.07-.2C206,521.75,202,517.08,198.29,512c-1.81-2.48-2.53-5.48-3.6-8.32A5.93,5.93,0,0,0,193.37,501ZM215.5,510c-2.27,0-4,.46-5,2.46a.81.81,0,0,0,.1,1,.67.67,0,0,0,1,0,9.71,9.71,0,0,1,6.82-2.2c.25,0,.54,0,.56-.35s-.28-.37-.51-.44A9.42,9.42,0,0,0,215.5,510Zm-5,5.88c.07-.39-.15-.59-.78-.27-1,.51-2.05.93-2.18,2.29,0,.44-.34.92.17,1.22a1.16,1.16,0,0,0,1.49-.2A4.9,4.9,0,0,0,210.47,515.92Z"/>
    <path id="sm-p16" d="M268.46,524.94c-.62,7-1.27,14.37-1.93,21.74q-.91,10.14-1.85,20.27c-.22,2.49-.62,5-.76,7.46a3.64,3.64,0,0,1-2.66,3.16,3.43,3.43,0,0,1-3.73-.61c-3.13-2.68-6-5.68-9.16-8.29a65.15,65.15,0,0,0-18-10.73,87.18,87.18,0,0,0-8.71-3c-1.89-.52-3.62-1.27-4.39-3.33a4.76,4.76,0,0,1,2-6c2.76-1.78,5.56-3.5,8.36-5.22,7-4.33,14-8.63,21-13,3.92-2.43,7.81-4.92,11.69-7.42,1.69-1.09,3.4-1.84,5.36-.77S268.54,522.24,268.46,524.94Z"/>
    <path id="sm-p17" d="M193.37,501a5.93,5.93,0,0,1,1.32,2.71c1.07,2.84,1.79,5.84,3.6,8.32,3.69,5.06,7.75,9.73,14.05,11.59a19.66,19.66,0,0,0,11.07.2A3.36,3.36,0,0,0,226,521c.65-4.22-.76-6.28-5.16-6.68-2.13-.2-4,.29-5,2.44a1.4,1.4,0,0,0,0,1.63,1.72,1.72,0,0,0,1.72.76c.29-.05.58-.12.86-.14a1,1,0,0,1,.74,1.79c-1.91,1.95-5.94,1.11-6.94-1.43a3.4,3.4,0,0,1,.33-2.76c1.21-2.7,4.73-4.55,8-4.26a12.21,12.21,0,0,1,3.77.75,1.15,1.15,0,0,0,1.08,0,77.36,77.36,0,0,0,14.41,10.65c.69.38,1.56.9,1.44,1.88s-1,1.24-1.7,1.67c-3.51,2.06-7,4.17-10.48,6.26L221.66,538c-.8.49-1.48.15-2.2-.29A61.06,61.06,0,0,1,204.54,525a54.57,54.57,0,0,1-7.73-12.6A40.14,40.14,0,0,1,193.37,501Z"/>
    <path id="sm-p18" d="M232,590.83a10.29,10.29,0,0,1-10.17-10.19c.14-7.07,5.2-10.91,10.6-10.82a10.42,10.42,0,0,1,10.38,10.27A10.73,10.73,0,0,1,232,590.83Z"/>
    <path id="sm-p19" d="M186.64,489.42a69.06,69.06,0,0,1,2.21-13.06,60.28,60.28,0,0,1,6.88-16.26c1.06-1.69,2.12-3.38,3.19-5.05a3.18,3.18,0,0,1,.66-.75,1.49,1.49,0,0,1,2-.05c.69.57.33,1.23-.06,1.78a62.3,62.3,0,0,0-6.13,10.42c-3.24,7-5.46,14.2-5.39,22,0,.3,0,.59,0,.88-.06,1.33-.49,1.76-1.72,1.74A1.45,1.45,0,0,1,186.64,489.42Z"/>
    <path id="sm-p20" d="M301.68,580.71c-.08.74-.13,1.51-.95,1.62s-.86-.67-1-1.19a58.6,58.6,0,0,0-5.06-12.45,59.22,59.22,0,0,0-14.77-16.91,31.4,31.4,0,0,1-2.95-2.08c-.56-.56-1.5-1.09-.68-2s1.68-.45,2.42.17c1.6,1.32,3.22,2.63,4.74,4a78.67,78.67,0,0,1,10.63,11.7,52.4,52.4,0,0,1,7.39,15.72A9.46,9.46,0,0,1,301.68,580.71Z"/>
    <path id="sm-p21" d="M224,647.38a21.89,21.89,0,0,1-5.14-2,58.22,58.22,0,0,1-11.17-7.47,54.67,54.67,0,0,1-11-12.5c-.4-.63-.79-1.26-1.22-1.88a1.27,1.27,0,0,1,.5-2c.73-.46,1.23,0,1.61.66a51.92,51.92,0,0,0,5.12,7.35,56.8,56.8,0,0,0,14.54,12.2,30,30,0,0,0,6.82,3,4.14,4.14,0,0,1,.59.21c.59.27,1.46.45,1.3,1.25S224.91,647.28,224,647.38Z"/>
    <path id="sm-p22" d="M254.39,432.5a88.19,88.19,0,0,1,10.5,2.16c6.83,1.93,12.81,5.46,18.46,9.62.67.5,1.57,1,1,2.11-.36.73-1.56.79-2.58.11s-1.67-1.37-2.56-2a57.46,57.46,0,0,0-16.77-7.77,59.4,59.4,0,0,0-8.42-1.66c-.9-.13-1.58-.43-1.47-1.45S253.5,432.59,254.39,432.5Z"/>
    <path id="sm-p23" d="M194.34,519.63a1.26,1.26,0,0,1,1.82-1.27,2.65,2.65,0,0,1,1.09,1.16c1.58,3.08,4,5.59,5.82,8.5.26.41,1,.76.31,1.33a1.39,1.39,0,0,1-2,0c-.55-.55-1-1.17-1.55-1.78-1.88-2.26-3.35-4.82-5.09-7.19A3.88,3.88,0,0,1,194.34,519.63Z"/>
    <path id="sm-p24" d="M187,498.66a8,8,0,0,1,.29-2.22,1.56,1.56,0,0,1,1.7-1.17c.9,0,.72.76.77,1.29.13,1.41.25,2.82.34,4.23.05.75-.06,1.48-1,1.63a1.46,1.46,0,0,1-1.78-1.18A6.81,6.81,0,0,1,187,498.66Z"/>
    <path id="sm-p25" d="M301.21,591.72c0-1,0-1.91,0-2.86,0-.6.15-1.22.87-1.32a1.07,1.07,0,0,1,1.22,1,29.54,29.54,0,0,1,.19,6.44,1.1,1.1,0,0,1-1.29.92c-.61,0-.81-.52-.81-1.07,0-1,0-2.07,0-3.1Z"/>
    <path id="sm-p26" d="M301.15,468.4a1.29,1.29,0,0,1-.85,1.41,1.15,1.15,0,0,1-1.47-.62c-.84-1.75-1.6-3.54-2.35-5.33-.25-.59.09-1,.62-1.15a1.09,1.09,0,0,1,1.27.26A13.38,13.38,0,0,1,301.15,468.4Z"/>
    <path id="sm-p27" d="M215.5,510a9.42,9.42,0,0,1,2.94.48c.23.07.53.12.51.44s-.31.36-.56.35a9.71,9.71,0,0,0-6.82,2.2.67.67,0,0,1-1,0,.81.81,0,0,1-.1-1C211.46,510.5,213.23,510,215.5,510Z"/>
    <path id="sm-p28" d="M210.47,515.92a4.9,4.9,0,0,1-1.3,3,1.16,1.16,0,0,1-1.49.2c-.51-.3-.22-.78-.17-1.22.13-1.36,1.19-1.78,2.18-2.29C210.32,515.33,210.54,515.53,210.47,515.92Z"/>
    <path id="sm-p13-no-cursor" d="M244.7,647.5c13.36-.26,23-3.58,31.61-9.39A51.58,51.58,0,0,0,294.52,617a56.58,56.58,0,0,0,5.06-17.29,63.29,63.29,0,0,0,0-10.84c-.3-5.53-2.07-10.62-4.26-15.56a50.75,50.75,0,0,0-7.83-12.17A72.76,72.76,0,0,0,273.34,549c-1.07-.75-1.86-.43-2,.87-.29,2-.4,4-.58,6.08-.55,5.88-1.07,11.77-1.65,17.65a6.17,6.17,0,0,0,1,4.59,26.72,26.72,0,0,1,4.54,9.4,28.34,28.34,0,0,1-4.22,23.35,26.56,26.56,0,0,1-11.26,9.8,31.55,31.55,0,0,1-25.84.54,28.57,28.57,0,0,1-15-13.78c-1.08-2.14-1.5-4.48-2.36-6.69-2.67-6.87-11.09-8.08-16.36-5.08a12.53,12.53,0,0,0-6,13.66c.77,4,2.75,7.6,4.8,11a54.18,54.18,0,0,0,16.42,17.53,55.29,55.29,0,0,0,17.58,7.83A57.72,57.72,0,0,0,244.7,647.5ZM232,590.83a10.73,10.73,0,0,0,10.81-10.74,10.42,10.42,0,0,0-10.38-10.27c-5.4-.09-10.46,3.75-10.6,10.82A10.29,10.29,0,0,0,232,590.83ZM186.64,489.42a1.45,1.45,0,0,0,1.58,1.63c1.23,0,1.66-.41,1.72-1.74,0-.29,0-.58,0-.88-.07-7.78,2.15-15,5.39-22A62.3,62.3,0,0,1,201.48,456c.39-.55.75-1.21.06-1.78a1.49,1.49,0,0,0-2,.05,3.18,3.18,0,0,0-.66.75c-1.07,1.67-2.13,3.36-3.19,5.05a60.28,60.28,0,0,0-6.88,16.26A69.06,69.06,0,0,0,186.64,489.42Zm115,91.29a9.46,9.46,0,0,0-.24-1.41,52.4,52.4,0,0,0-7.39-15.72,78.67,78.67,0,0,0-10.63-11.7c-1.52-1.42-3.14-2.73-4.74-4-.74-.62-1.62-1.09-2.42-.17s.12,1.48.68,2a31.4,31.4,0,0,0,2.95,2.08,59.22,59.22,0,0,1,14.77,16.91,58.6,58.6,0,0,1,5.06,12.45c.15.52.21,1.31,1,1.19S301.6,581.45,301.68,580.71ZM224,647.38c.91-.1,1.78-.31,2-1.18s-.71-1-1.3-1.25a4.14,4.14,0,0,0-.59-.21,30,30,0,0,1-6.82-3,56.8,56.8,0,0,1-14.54-12.2,51.92,51.92,0,0,1-5.12-7.35c-.38-.65-.88-1.12-1.61-.66a1.27,1.27,0,0,0-.5,2c.43.62.82,1.25,1.22,1.88a54.67,54.67,0,0,0,11,12.5,58.22,58.22,0,0,0,11.17,7.47A21.89,21.89,0,0,0,224,647.38ZM254.39,432.5c-.89.09-1.7.18-1.8,1.14s.57,1.32,1.47,1.45a59.4,59.4,0,0,1,8.42,1.66,57.46,57.46,0,0,1,16.77,7.77c.89.61,1.66,1.38,2.56,2s2.22.62,2.58-.11c.53-1.07-.37-1.61-1-2.11-5.65-4.16-11.63-7.69-18.46-9.62A88.19,88.19,0,0,0,254.39,432.5Zm-60,87.13a3.88,3.88,0,0,0,.37.79c1.74,2.37,3.21,4.93,5.09,7.19.5.61,1,1.23,1.55,1.78a1.39,1.39,0,0,0,2,0c.68-.57,0-.92-.31-1.33-1.83-2.91-4.24-5.42-5.82-8.5a2.65,2.65,0,0,0-1.09-1.16A1.26,1.26,0,0,0,194.34,519.63Zm-7.38-21a6.81,6.81,0,0,0,.35,2.58,1.46,1.46,0,0,0,1.78,1.18c.91-.15,1-.88,1-1.63-.09-1.41-.21-2.82-.34-4.23-.05-.53.13-1.3-.77-1.29a1.56,1.56,0,0,0-1.7,1.17A8,8,0,0,0,187,498.66Zm114.25,93.06h.19c0,1,0,2.07,0,3.1,0,.55.2,1,.81,1.07a1.1,1.1,0,0,0,1.29-.92,29.54,29.54,0,0,0-.19-6.44,1.07,1.07,0,0,0-1.22-1c-.72.1-.86.72-.87,1.32C301.19,589.81,301.21,590.76,301.21,591.72Zm-.06-123.32a13.38,13.38,0,0,0-2.78-5.43,1.09,1.09,0,0,0-1.27-.26c-.53.19-.87.56-.62,1.15.75,1.79,1.51,3.58,2.35,5.33a1.15,1.15,0,0,0,1.47.62A1.29,1.29,0,0,0,301.15,468.4Z"/>

    <g id="sm-s-silhouette">
        <use href="#sm-p14"/>
        <use href="#sm-p15"/>
        <use href="#sm-p17"/>
        <use href="#sm-p18"/>
        <use href="#sm-p19"/>
        <use href="#sm-p20"/>
        <use href="#sm-p21"/>
        <use href="#sm-p22"/>
        <use href="#sm-p23"/>
        <use href="#sm-p24"/>
        <use href="#sm-p25"/>
        <use href="#sm-p26"/>
        <use href="#sm-p27"/>
        <use href="#sm-p28"/>
    </g>

    <clipPath id="sm-s-clip" clipPathUnits="userSpaceOnUse">
      <path d="M244.7,647.5a57.72,57.72,0,0,1-12.41-1.74,55.29,55.29,0,0,1-17.58-7.83,54.18,54.18,0,0,1-16.42-17.53c-2-3.45-4-7-4.8-11a12.53,12.53,0,0,1,6-13.66c5.27-3,13.69-1.79,16.36,5.08.86,2.21,1.28,4.55,2.36,6.69a28.57,28.57,0,0,0,15,13.78,31.55,31.55,0,0,0,25.84-.54,26.56,26.56,0,0,0,11.26-9.8,28.34,28.34,0,0,0,4.22-23.35,26.72,26.72,0,0,0-4.54-9.4,6.17,6.17,0,0,1-1-4.59c.58-5.88,1.1-11.77,1.65-17.65.18-2,.29-4.07.58-6.08.18-1.3,1-1.62,2-.87a72.76,72.76,0,0,1,14.12,12.21,50.75,50.75,0,0,1,7.83,12.17c2.19,4.94,4,10,4.26,15.56a63.29,63.29,0,0,1,0,10.84A56.58,56.58,0,0,1,294.52,617a51.58,51.58,0,0,1-18.21,21.08C267.73,643.92,258.06,647.24,244.7,647.5Z"/>
      <path d="M193.37,501a28.55,28.55,0,0,1-1.41-8.7,53,53,0,0,1,4.09-22.17A51.7,51.7,0,0,1,207.23,453a54.56,54.56,0,0,1,24.52-14.45,53.71,53.71,0,0,1,25.2-1,57.54,57.54,0,0,1,16.11,5.71,52.39,52.39,0,0,1,19.25,17.44,46.77,46.77,0,0,1,6.95,14.67c1.41,5.81,0,11.35-5.86,14.35a12.74,12.74,0,0,1-15.57-3.45,11.34,11.34,0,0,1-2.17-4.45c-1.89-7.4-6.45-12.77-12.81-16.69a29.92,29.92,0,0,0-24.74-3.37,28.46,28.46,0,0,0-18.34,15.46c-3.63,7.44-3.92,15.21-1.73,23.1,1.28,4.6,3.94,8.46,6.9,12.13.15.19.28.4.42.6a1.15,1.15,0,0,1-1.08,0,12.21,12.21,0,0,0-3.77-.75c-3.25-.29-6.77,1.56-8,4.26a3.4,3.4,0,0,0-.33,2.76c1,2.54,5,3.38,6.94,1.43a1,1,0,0,0-.74-1.79c-.28,0-.57.09-.86.14a1.72,1.72,0,0,1-1.72-.76,1.4,1.4,0,0,1,0-1.63c1-2.15,2.87-2.64,5-2.44,4.4.4,5.81,2.46,5.16,6.68a3.36,3.36,0,0,1-2.57,2.77,19.66,19.66,0,0,1-11.07-.2C206,521.75,202,517.08,198.29,512c-1.81-2.48-2.53-5.48-3.6-8.32A5.93,5.93,0,0,0,193.37,501ZM215.5,510c-2.27,0-4,.46-5,2.46a.81.81,0,0,0,.1,1,.67.67,0,0,0,1,0,9.71,9.71,0,0,1,6.82-2.2c.25,0,.54,0,.56-.35s-.28-.37-.51-.44A9.42,9.42,0,0,0,215.5,510Zm-5,5.88c.07-.39-.15-.59-.78-.27-1,.51-2.05.93-2.18,2.29,0,.44-.34.92.17,1.22a1.16,1.16,0,0,0,1.49-.2A4.9,4.9,0,0,0,210.47,515.92Z"/>
      <path d="M193.37,501a5.93,5.93,0,0,1,1.32,2.71c1.07,2.84,1.79,5.84,3.6,8.32,3.69,5.06,7.75,9.73,14.05,11.59a19.66,19.66,0,0,0,11.07.2A3.36,3.36,0,0,0,226,521c.65-4.22-.76-6.28-5.16-6.68-2.13-.2-4,.29-5,2.44a1.4,1.4,0,0,0,0,1.63,1.72,1.72,0,0,0,1.72.76c.29-.05.58-.12.86-.14a1,1,0,0,1,.74,1.79c-1.91,1.95-5.94,1.11-6.94-1.43a3.4,3.4,0,0,1,.33-2.76c1.21-2.7,4.73-4.55,8-4.26a12.21,12.21,0,0,1,3.77.75,1.15,1.15,0,0,0,1.08,0,77.36,77.36,0,0,0,14.41,10.65c.69.38,1.56.9,1.44,1.88s-1,1.24-1.7,1.67c-3.51,2.06-7,4.17-10.48,6.26L221.66,538c-.8.49-1.48.15-2.2-.29A61.06,61.06,0,0,1,204.54,525a54.57,54.57,0,0,1-7.73-12.6A40.14,40.14,0,0,1,193.37,501Z"/>
      <path d="M232,590.83a10.29,10.29,0,0,1-10.17-10.19c.14-7.07,5.2-10.91,10.6-10.82a10.42,10.42,0,0,1,10.38,10.27A10.73,10.73,0,0,1,232,590.83Z"/>
      <path d="M186.64,489.42a69.06,69.06,0,0,1,2.21-13.06,60.28,60.28,0,0,1,6.88-16.26c1.06-1.69,2.12-3.38,3.19-5.05a3.18,3.18,0,0,1,.66-.75,1.49,1.49,0,0,1,2-.05c.69.57.33,1.23-.06,1.78a62.3,62.3,0,0,0-6.13,10.42c-3.24,7-5.46,14.2-5.39,22,0,.3,0,.59,0,.88-.06,1.33-.49,1.76-1.72,1.74A1.45,1.45,0,0,1,186.64,489.42Z"/>
      <path d="M301.68,580.71c-.08.74-.13,1.51-.95,1.62s-.86-.67-1-1.19a58.6,58.6,0,0,0-5.06-12.45,59.22,59.22,0,0,0-14.77-16.91,31.4,31.4,0,0,1-2.95-2.08c-.56-.56-1.5-1.09-.68-2s1.68-.45,2.42.17c1.6,1.32,3.22,2.63,4.74,4a78.67,78.67,0,0,1,10.63,11.7,52.4,52.4,0,0,1,7.39,15.72A9.46,9.46,0,0,1,301.68,580.71Z"/>
      <path d="M224,647.38a21.89,21.89,0,0,1-5.14-2,58.22,58.22,0,0,1-11.17-7.47,54.67,54.67,0,0,1-11-12.5c-.4-.63-.79-1.26-1.22-1.88a1.27,1.27,0,0,1,.5-2c.73-.46,1.23,0,1.61.66a51.92,51.92,0,0,0,5.12,7.35,56.8,56.8,0,0,0,14.54,12.2,30,30,0,0,0,6.82,3,4.14,4.14,0,0,1,.59.21c.59.27,1.46.45,1.3,1.25S224.91,647.28,224,647.38Z"/>
      <path d="M254.39,432.5a88.19,88.19,0,0,1,10.5,2.16c6.83,1.93,12.81,5.46,18.46,9.62.67.5,1.57,1,1,2.11-.36.73-1.56.79-2.58.11s-1.67-1.37-2.56-2a57.46,57.46,0,0,0-16.77-7.77,59.4,59.4,0,0,0-8.42-1.66c-.9-.13-1.58-.43-1.47-1.45S253.5,432.59,254.39,432.5Z"/>
      <path d="M194.34,519.63a1.26,1.26,0,0,1,1.82-1.27,2.65,2.65,0,0,1,1.09,1.16c1.58,3.08,4,5.59,5.82,8.5.26.41,1,.76.31,1.33a1.39,1.39,0,0,1-2,0c-.55-.55-1-1.17-1.55-1.78-1.88-2.26-3.35-4.82-5.09-7.19A3.88,3.88,0,0,1,194.34,519.63Z"/>
      <path d="M187,498.66a8,8,0,0,1,.29-2.22,1.56,1.56,0,0,1,1.7-1.17c.9,0,.72.76.77,1.29.13,1.41.25,2.82.34,4.23.05.75-.06,1.48-1,1.63a1.46,1.46,0,0,1-1.78-1.18A6.81,6.81,0,0,1,187,498.66Z"/>
      <path d="M301.21,591.72c0-1,0-1.91,0-2.86,0-.6.15-1.22.87-1.32a1.07,1.07,0,0,1,1.22,1,29.54,29.54,0,0,1,.19,6.44,1.1,1.1,0,0,1-1.29.92c-.61,0-.81-.52-.81-1.07,0-1,0-2.07,0-3.1Z"/>
      <path d="M301.15,468.4a1.29,1.29,0,0,1-.85,1.41,1.15,1.15,0,0,1-1.47-.62c-.84-1.75-1.6-3.54-2.35-5.33-.25-.59.09-1,.62-1.15a1.09,1.09,0,0,1,1.27.26A13.38,13.38,0,0,1,301.15,468.4Z"/>
      <path d="M215.5,510a9.42,9.42,0,0,1,2.94.48c.23.07.53.12.51.44s-.31.36-.56.35a9.71,9.71,0,0,0-6.82,2.2.67.67,0,0,1-1,0,.81.81,0,0,1-.1-1C211.46,510.5,213.23,510,215.5,510Z"/>
      <path d="M210.47,515.92a4.9,4.9,0,0,1-1.3,3,1.16,1.16,0,0,1-1.49.2c-.51-.3-.22-.78-.17-1.22.13-1.36,1.19-1.78,2.18-2.29C210.32,515.33,210.54,515.53,210.47,515.92Z"/>
    </clipPath>

    <linearGradient id="sm-liquid-gradient" x1="0" y1="0" x2="0.82" y2="1">
      <stop offset="0" stop-color="#b51a82"/>
      <stop offset="0.48" stop-color="#940b69"/>
      <stop offset="1" stop-color="#68064b"/>
    </linearGradient>

    <linearGradient id="sm-trail-gradient" x1="210" y1="455" x2="284" y2="628" gradientUnits="userSpaceOnUse">
      <stop offset="0" stop-color="#fff1cf" stop-opacity="0.2"/>
      <stop offset="0.48" stop-color="#faa723" stop-opacity="0.9"/>
      <stop offset="1" stop-color="#940b69" stop-opacity="0.28"/>
    </linearGradient>

    <filter id="sm-cursor-shadow" x="-100%" y="-100%" width="300%" height="300%" color-interpolation-filters="sRGB">
      <feDropShadow dx="0" dy="2" stdDeviation="3" flood-color="#4d0739" flood-opacity="0.32"/>
    </filter>

    <filter id="sm-wave-glow" x="-30%" y="-200%" width="160%" height="500%" color-interpolation-filters="sRGB">
      <feGaussianBlur stdDeviation="1.5" result="soft"/>
      <feMerge>
        <feMergeNode in="soft"/>
        <feMergeNode in="SourceGraphic"/>
      </feMerge>
    </filter>

    <path id="sm-cursor-route"
          d="M126 556
             C162 562 196 566 219 555
             C230 550 239.2 545.8 245.92 541.2
             C260.82 529.8 276.82 516.3 280.32 496.8
             C284.12 475.4 271.32 459 251.32 457
             C229.82 454.8 213.72 470 214.82 491.2
             C215.92 512.3 229.62 528.6 245.92 541.2
             C262.82 554.2 279.62 569 281.62 589.1
             C283.82 611.1 268.32 626.8 247.32 627.1
             C225.32 627.4 210.12 611.7 212.12 590.6
             C214.02 570.1 229.32 554 245.92 541.2
             C253 535.7 256 541.8 252 546.3
             C251.2 547.1 249.9 547.6 248.90794 547.59504"/>
  </defs>

  <style>
    #sm-animated-cursor,
    #sm-cursor-trail,
    #sm-cursor-trail-core {
      pointer-events: none;
    }

    #sm-original-final {
      opacity: 0;
    }

    @media (prefers-reduced-motion: reduce) {
      #sm-animation-mark,
      #sm-liquid-reveal,
      #sm-animated-cursor,
      #sm-cursor-trail,
      #sm-cursor-trail-core {
        display: none;
      }

      #sm-original-final {
        display: inline;
        opacity: 1 !important;
      }
    }
  </style>

  <!-- Animation base: exact visible layers with the cursor deliberately removed. -->
  <g id="sm-animation-mark">
    <use href="#sm-p13-no-cursor" fill="#930b67"/>
    <use href="#sm-p14" fill="#940b69"/>
    <use href="#sm-p15" fill="#faa723"/>
    <use href="#sm-p17" fill="#940b69"/>
    <use href="#sm-p18" fill="#940b69"/>
    <use href="#sm-p19" fill="#faa723"/>
    <use href="#sm-p20" fill="#940b69"/>
    <use href="#sm-p21" fill="#940b69"/>
    <use href="#sm-p22" fill="#faa723"/>
    <use href="#sm-p23" fill="#faa723"/>
    <use href="#sm-p24" fill="#faa723"/>
    <use href="#sm-p25" fill="#940b69"/>
    <use href="#sm-p26" fill="#faa723"/>
    <use href="#sm-p27" fill="#940b69"/>
    <use href="#sm-p28" fill="#940b69"/>
  </g>

  <!-- Pixel-faithful landing: the original source paths in their original order. -->
  <g id="sm-original-final" opacity="0">
    <use href="#sm-p13" fill="#930b67"/>
    <use href="#sm-p14" fill="#940b69"/>
    <use href="#sm-p15" fill="#faa723"/>
    <use href="#sm-p16" fill="#940b69"/>
    <use href="#sm-p17" fill="#940b69"/>
    <use href="#sm-p18" fill="#940b69"/>
    <use href="#sm-p19" fill="#faa723"/>
    <use href="#sm-p20" fill="#940b69"/>
    <use href="#sm-p21" fill="#940b69"/>
    <use href="#sm-p22" fill="#faa723"/>
    <use href="#sm-p23" fill="#faa723"/>
    <use href="#sm-p24" fill="#faa723"/>
    <use href="#sm-p25" fill="#940b69"/>
    <use href="#sm-p26" fill="#faa723"/>
    <use href="#sm-p27" fill="#940b69"/>
    <use href="#sm-p28" fill="#940b69"/>
  </g>

  <!-- Purple water covers the finished S, then its boundary descends to reveal yellow above. -->
  <g id="sm-liquid-reveal" clip-path="url(#sm-s-clip)">
    <g id="sm-liquid-drop" transform="translate(0 -235)">
      <animateTransform attributeName="transform"
                        type="translate"
                        begin="0.08s"
                        dur="2.02s"
                        values="0 -235; 0 8; 0 -4; 0 0"
                        keyTimes="0; 0.78; 0.91; 1"
                        calcMode="spline"
                        keySplines="0.42 0 0.58 1; 0.2 0.9 0.3 1; 0.2 0.8 0.3 1"
                        fill="freeze"/>

      <g id="sm-wave-drift">
        <animateTransform attributeName="transform"
                          type="translate"
                          begin="0s"
                          dur="2.8s"
                          values="-42 0; 0 0; -42 0"
                          keyTimes="0; 0.5; 1"
                          calcMode="spline"
                          keySplines="0.45 0 0.55 1; 0.45 0 0.55 1"
                          repeatCount="indefinite"/>

        <path d="M82 660
                 C106 647 130 673 154 660
                 S202 647 226 660
                 S274 673 298 660
                 S346 647 370 660
                 S418 673 442 660
                 L442 770 L82 770 Z"
              fill="url(#sm-liquid-gradient)"/>

        <path d="M82 660
                 C106 647 130 673 154 660
                 S202 647 226 660
                 S274 673 298 660
                 S346 647 370 660
                 S418 673 442 660"
              fill="none"
              stroke="#fff1cf"
              stroke-width="2.2"
              stroke-linecap="round"
              opacity="0.5"
              filter="url(#sm-wave-glow)"/>

        <circle cx="205" cy="648" r="3.2" fill="#a81477" opacity="0.82">
          <animate attributeName="r" values="2.2;3.6;2.2" dur="1.1s" repeatCount="indefinite"/>
        </circle>
        <circle cx="279" cy="643" r="2.1" fill="#b51a82" opacity="0.72">
          <animate attributeName="r" values="1.5;2.8;1.5" dur="0.9s" begin="0.18s" repeatCount="indefinite"/>
        </circle>
      </g>
    </g>
  </g>

  <!-- Both trails are driven from the cursor's real distance along one route. -->
  <use id="sm-cursor-trail"
       href="#sm-cursor-route"
       fill="none"
       stroke="url(#sm-trail-gradient)"
       stroke-width="2.4"
       stroke-linecap="round"
       opacity="0"/>
  <use id="sm-cursor-trail-core"
       href="#sm-cursor-route"
       fill="none"
       stroke="#fff1cf"
       stroke-width="0.85"
       stroke-linecap="round"
       opacity="0"/>

  <!-- Nested transforms keep motion, bob, banking and scale independent. -->
  <g id="sm-animated-cursor" opacity="0">
    <g id="sm-cursor-motion">
      <g id="sm-cursor-bob">
        <g id="sm-cursor-bank">
          <g id="sm-cursor-scale">
            <g transform="translate(-248.90794 -547.59504)">
              <g id="sm-cursor-shadow-lag">
                <use href="#sm-p16"
                     fill="#4e083a"
                     opacity="0.22"
                     filter="url(#sm-cursor-shadow)"/>
              </g>
              <use id="sm-cursor-glow"
                   href="#sm-p16"
                   fill="#940b69"
                   opacity="0.16"
                   filter="url(#sm-cursor-shadow)"/>
              <use id="sm-cursor-main" href="#sm-p16" fill="#940b69"/>
            </g>
          </g>
        </g>
      </g>
    </g>
  </g>

  <script><![CDATA[
    (function () {
      'use strict';

      var script = document.currentScript;
      var root = script && script.ownerSVGElement ? script.ownerSVGElement : document.documentElement;
      var q = function (id) { return root.querySelector('#' + id); };
      var route = q('sm-cursor-route');
      var animationMark = q('sm-animation-mark');
      var originalFinal = q('sm-original-final');
      var liquid = q('sm-liquid-reveal');
      var animatedCursor = q('sm-animated-cursor');
      var motion = q('sm-cursor-motion');
      var bobGroup = q('sm-cursor-bob');
      var bankGroup = q('sm-cursor-bank');
      var scaleGroup = q('sm-cursor-scale');
      var shadowLag = q('sm-cursor-shadow-lag');
      var shadowShape = shadowLag.querySelector('use');
      var glow = q('sm-cursor-glow');
      var trail = q('sm-cursor-trail');
      var trailCore = q('sm-cursor-trail-core');
      var prefersReduced = window.matchMedia && window.matchMedia('(prefers-reduced-motion: reduce)').matches;

      var CURSOR_DELAY = 2.18;
      var CURSOR_DURATION = 6.72;
      var LANDING_BLEND = 0.18;
      var routeLength = route.getTotalLength();
      var keyTimes = [0, 0.20, 0.68, 1.18, 1.48, 2.42, 3.49, 4.60, 5.73, 6.24, 6.50, 6.72];
      var keyProgress = [0, 0.012, 0.105, 0.203, 0.235, 0.388, 0.581, 0.775, 0.970, 0.990, 0.997, 1];
      var keyScaleX = [0.50, 0.54, 0.66, 0.68, 0.66, 0.64, 0.72, 0.64, 0.69, 0.82, 1.015, 1];
      var keyScaleY = [0.47, 0.52, 0.62, 0.65, 0.68, 0.70, 0.65, 0.70, 0.66, 0.78, 0.995, 1];
      var keyBank = [-4, -2.5, -1.2, 0, -1.2, -6.2, 2, 6.2, 0.3, 2.8, -0.8, 0];

      var elapsed = 0;
      var lastTimestamp = null;
      var frame = 0;
      var running = false;
      var smoothBank = 0;
      var shadowX = 0;
      var shadowY = 0;

      function clamp(value, min, max) {
        return Math.max(min, Math.min(max, value));
      }

      function smoothstep(value) {
        var t = clamp(value, 0, 1);
        return t * t * (3 - 2 * t);
      }

      function buildMonotone(xs, ys) {
        var n = xs.length;
        var widths = new Array(n - 1);
        var secants = new Array(n - 1);
        var tangents = new Array(n);
        var i;

        for (i = 0; i < n - 1; i += 1) {
          widths[i] = xs[i + 1] - xs[i];
          secants[i] = (ys[i + 1] - ys[i]) / widths[i];
        }

        tangents[0] = secants[0];
        tangents[n - 1] = secants[n - 2];
        for (i = 1; i < n - 1; i += 1) {
          if (secants[i - 1] * secants[i] <= 0) {
            tangents[i] = 0;
          } else {
            var w1 = 2 * widths[i] + widths[i - 1];
            var w2 = widths[i] + 2 * widths[i - 1];
            tangents[i] = (w1 + w2) / (w1 / secants[i - 1] + w2 / secants[i]);
          }
        }

        return function (x) {
          if (x <= xs[0]) return ys[0];
          if (x >= xs[n - 1]) return ys[n - 1];
          var segment = 0;
          while (segment < n - 2 && x > xs[segment + 1]) segment += 1;
          var h = widths[segment];
          var u = (x - xs[segment]) / h;
          var u2 = u * u;
          var u3 = u2 * u;
          var h00 = 2 * u3 - 3 * u2 + 1;
          var h10 = u3 - 2 * u2 + u;
          var h01 = -2 * u3 + 3 * u2;
          var h11 = u3 - u2;
          return h00 * ys[segment] + h10 * h * tangents[segment] +
                 h01 * ys[segment + 1] + h11 * h * tangents[segment + 1];
        };
      }

      function sampleSmooth(time, values) {
        if (time <= keyTimes[0]) return values[0];
        if (time >= keyTimes[keyTimes.length - 1]) return values[values.length - 1];
        var segment = 0;
        while (segment < keyTimes.length - 2 && time > keyTimes[segment + 1]) segment += 1;
        var amount = smoothstep((time - keyTimes[segment]) / (keyTimes[segment + 1] - keyTimes[segment]));
        return values[segment] + (values[segment + 1] - values[segment]) * amount;
      }

      function normalizeAngle(angle) {
        while (angle > Math.PI) angle -= Math.PI * 2;
        while (angle < -Math.PI) angle += Math.PI * 2;
        return angle;
      }

      var progressAt = buildMonotone(keyTimes, keyProgress);

      function setOpacity(element, value) {
        element.style.opacity = String(clamp(value, 0, 1));
      }

      function showExactFinal() {
        setOpacity(animationMark, 0);
        setOpacity(originalFinal, 1);
        setOpacity(liquid, 0);
        setOpacity(animatedCursor, 0);
        setOpacity(trail, 0);
        setOpacity(trailCore, 0);
      }

      function render(globalTime, immediate, deltaTime) {
        var local = globalTime - CURSOR_DELAY;
        var liquidFade = smoothstep((globalTime - (CURSOR_DELAY - 0.16)) / 0.14);
        setOpacity(liquid, 1 - liquidFade);

        if (local < 0) {
          setOpacity(animationMark, 1);
          setOpacity(originalFinal, 0);
          setOpacity(animatedCursor, 0);
          setOpacity(trail, 0);
          setOpacity(trailCore, 0);
          return;
        }

        if (local >= CURSOR_DURATION) {
          showExactFinal();
          return;
        }

        var progress = progressAt(local);
        var distance = progress * routeLength;
        var point = route.getPointAtLength(distance);
        var before = route.getPointAtLength(Math.max(0, distance - 1.2));
        var after = route.getPointAtLength(Math.min(routeLength, distance + 1.2));
        var tangentX = after.x - before.x;
        var tangentY = after.y - before.y;
        var tangentLength = Math.max(0.0001, Math.hypot(tangentX, tangentY));
        tangentX /= tangentLength;
        tangentY /= tangentLength;
        var normalX = -tangentY;
        var normalY = tangentX;

        var sampleWindow = 0.015;
        var progressBefore = progressAt(Math.max(0, local - sampleWindow));
        var progressAfter = progressAt(Math.min(CURSOR_DURATION, local + sampleWindow));
        var speed = (progressAfter - progressBefore) * routeLength / (sampleWindow * 2);
        var speedAmount = clamp(speed / 118, 0, 1);

        var incomingAngle = Math.atan2(point.y - before.y, point.x - before.x);
        var outgoingAngle = Math.atan2(after.y - point.y, after.x - point.x);
        var curvatureBank = clamp(normalizeAngle(outgoingAngle - incomingAngle) * 180 / Math.PI * 1.8, -5.5, 5.5);
        var authoredBank = sampleSmooth(local, keyBank);
        var targetBank = clamp(authoredBank * 0.68 + curvatureBank * 0.32, -6.5, 6.5);
        var alpha = immediate ? 1 : 1 - Math.exp(-Math.max(0.001, deltaTime) / 0.13);
        smoothBank += (targetBank - smoothBank) * alpha;

        var bobIn = smoothstep((local - 0.18) / 0.52);
        var bobOut = 1 - smoothstep((local - 5.72) / 0.72);
        var bob = (
          Math.sin(progress * Math.PI * 4) * 0.72 +
          Math.sin(progress * Math.PI * 8 + 0.7) * 0.12
        ) * bobIn * bobOut;
        var x = point.x + normalX * bob;
        var y = point.y + normalY * bob;

        var scaleX = sampleSmooth(local, keyScaleX);
        var scaleY = sampleSmooth(local, keyScaleY);
        var landingBlend = smoothstep((local - (CURSOR_DURATION - LANDING_BLEND)) / LANDING_BLEND);
        var entranceOpacity = smoothstep(local / 0.22);
        var animatedOpacity = entranceOpacity * (1 - landingBlend);

        motion.setAttribute('transform', 'translate(' + x.toFixed(3) + ' ' + y.toFixed(3) + ')');
        bobGroup.setAttribute('transform', 'translate(0 0)');
        bankGroup.setAttribute('transform', 'rotate(' + smoothBank.toFixed(3) + ')');
        scaleGroup.setAttribute('transform', 'scale(' + scaleX.toFixed(4) + ' ' + scaleY.toFixed(4) + ')');

        var lag = 0.55 + speedAmount * 1.55;
        var targetShadowX = -tangentX * lag;
        var targetShadowY = -tangentY * lag + 0.65;
        shadowX += (targetShadowX - shadowX) * alpha;
        shadowY += (targetShadowY - shadowY) * alpha;
        shadowLag.setAttribute('transform', 'translate(' + shadowX.toFixed(3) + ' ' + shadowY.toFixed(3) + ')');

        var centerBreath = Math.exp(-Math.pow((local - 1.10) / 0.17, 2));
        setOpacity(shadowShape, (0.14 + speedAmount * 0.20) * (1 - landingBlend));
        setOpacity(glow, (0.09 + speedAmount * 0.15 + centerBreath * 0.22) * (1 - landingBlend));
        setOpacity(animatedCursor, animatedOpacity);
        setOpacity(animationMark, 1 - landingBlend);
        setOpacity(originalFinal, landingBlend);

        var trailEnvelope = smoothstep(local / 0.22) * (1 - landingBlend);
        trail.setAttribute('stroke-dasharray', '42 ' + (routeLength + 42).toFixed(2));
        trail.setAttribute('stroke-dashoffset', (42 - distance).toFixed(2));
        trailCore.setAttribute('stroke-dasharray', '22 ' + (routeLength + 22).toFixed(2));
        trailCore.setAttribute('stroke-dashoffset', (22 - distance).toFixed(2));
        setOpacity(trail, (0.14 + speedAmount * 0.23) * trailEnvelope);
        setOpacity(trailCore, (0.10 + speedAmount * 0.16) * trailEnvelope);
      }

      function tick(timestamp) {
        if (!running) return;
        if (lastTimestamp === null) lastTimestamp = timestamp;
        var deltaTime = clamp((timestamp - lastTimestamp) / 1000, 0, 0.05);
        lastTimestamp = timestamp;
        elapsed += deltaTime;
        render(elapsed, false, deltaTime);
        frame = window.requestAnimationFrame(tick);
      }

      function pause() {
        if (!running) return;
        running = false;
        window.cancelAnimationFrame(frame);
        lastTimestamp = null;
        if (root.pauseAnimations) root.pauseAnimations();
      }

      function resume() {
        if (prefersReduced || running) return;
        running = true;
        lastTimestamp = null;
        if (root.unpauseAnimations) root.unpauseAnimations();
        frame = window.requestAnimationFrame(tick);
      }

      function replay() {
        if (prefersReduced) return;
        elapsed = 0;
        smoothBank = 0;
        shadowX = 0;
        shadowY = 0;
        if (root.setCurrentTime) root.setCurrentTime(0);
        render(0, true, 0.016);
        resume();
      }

      function seek(seconds) {
        if (prefersReduced) return;
        pause();
        elapsed = Math.max(0, Number(seconds) || 0);
        if (root.setCurrentTime) root.setCurrentTime(elapsed);
        render(elapsed, true, 0.016);
      }

      root.__smReplay = replay;
      root.__smPause = pause;
      root.__smResume = resume;
      root.__smSeek = seek;

      if (prefersReduced) {
        if (animationMark) animationMark.style.display = 'none';
        if (liquid) liquid.style.display = 'none';
        showExactFinal();
      } else {
        render(0, true, 0.016);
        resume();
      }

      document.addEventListener('visibilitychange', function () {
        if (document.hidden) pause();
        else resume();
      });
    }());
  ]]></script>
</svg>